<?xml version="1.0" encoding="UTF-8"?>
<svg version="1.1" xmlns="http://www.w3.org/2000/svg" width="186" height="172">
<path d="M0 0 C0.99 0.33 1.98 0.66 3 1 C4.09765625 3.14453125 4.09765625 3.14453125 5.0625 5.8125 C6.41837383 9.52478736 6.41837383 9.52478736 8.12890625 13.078125 C9.34030248 15.75080189 8.89960693 18.19245698 8.8046875 21.06640625 C8.84336789 23.26711037 8.84336789 23.26711037 11 25.375 C14.03452199 29.35781012 13.53129768 33.15760116 13 38 C12.3747292 40.34476551 11.7136591 42.68060793 11 45 C10.7872451 48.40407845 11.04403089 51.25537915 11.625 54.625 C12.00492529 58.04432761 11.91375967 59.23568047 10 62 C9.67 62.33 9.34 62.66 9 63 C8.80058132 65.06772734 8.80058132 65.06772734 8.8125 67.4375 C8.79832031 68.24058594 8.78414063 69.04367188 8.76953125 69.87109375 C8.79837644 72.21630633 8.79837644 72.21630633 11 74 C11.59765625 76.05859375 11.59765625 76.05859375 12.0625 78.4375 C12.58554517 81.06137121 13.15093007 83.45279021 14 86 C14.804375 86.515625 15.60875 87.03125 16.4375 87.5625 C20.12511363 91.07023004 20.6504265 95.01441608 21 100 C20.505 101.485 20.505 101.485 20 103 C22.96110087 101.67427065 22.96110087 101.67427065 25.25 99.4375 C28.13252959 97.06970784 31.34155006 97.29987295 35 97 C35.82032465 90.76996688 36.4069331 85.94654061 34 80 C33.875 77.125 33.875 77.125 34 75 C39.53133137 73.04098681 43.22073299 72.90393212 49 74 C49.33 74.33 49.66 74.66 50 75 C49.9140625 76.85546875 49.9140625 76.85546875 49.625 79.1875 C49.47804687 80.41146484 49.47804687 80.41146484 49.328125 81.66015625 C49.07132973 83.49135107 48.73764086 85.31179569 48.375 87.125 C47.92302211 90.5901638 48.38357491 93.57541619 49 97 C50.11375 97.309375 51.2275 97.61875 52.375 97.9375 C56 99 56 99 58 100 C58 100.66 58 101.32 58 102 C58.66 102 59.32 102 60 102 C62.67927341 106.01891012 62.15601248 108.24161923 62 113 C56.43930418 115.25433614 50.9214349 115.59961828 45 116 C46.07209684 117.61638681 46.07209684 117.61638681 48 119 C51.21161865 119.47584106 51.21161865 119.47584106 54.8984375 119.44140625 C55.57041168 119.45461411 56.24238586 119.46782196 56.9347229 119.48143005 C59.08152369 119.52229259 61.22789872 119.54397391 63.375 119.5625 C65.51482767 119.58635619 67.65425824 119.61461814 69.79385376 119.65428162 C71.74049825 119.68967119 73.68740534 119.7096139 75.63427734 119.72875977 C80.14877973 120.09257901 82.95281216 120.7839109 85.9375 124.25 C87 127 87 127 86.8125 130 C83.97018999 134.70451313 79.97859006 135.97326346 75 138 C74.36030273 138.26377441 73.72060547 138.52754883 73.06152344 138.79931641 C70.96460914 139.65579556 68.86002686 140.48888537 66.75 141.3125 C66.07694824 141.57933594 65.40389648 141.84617188 64.71044922 142.12109375 C59.88361465 143.93398936 55.80157744 144.96068454 50.82421875 143.25390625 C48.62181825 141.74005066 47.35133855 140.11719162 45.8125 137.9375 C45.30332031 137.22464844 44.79414063 136.51179687 44.26953125 135.77734375 C43.64111328 134.89755859 43.64111328 134.89755859 43 134 C41.45049732 132.45049732 39.90009406 132.78344807 37.74609375 132.68359375 C36.89208984 132.64169922 36.03808594 132.59980469 35.15820312 132.55664062 C34.26037109 132.51732422 33.36253906 132.47800781 32.4375 132.4375 C31.53580078 132.39431641 30.63410156 132.35113281 29.70507812 132.30664062 C27.47021515 132.20021858 25.23523692 132.09820012 23 132 C23.27714844 132.86882812 23.55429688 133.73765625 23.83984375 134.6328125 C24.20207031 135.78523437 24.56429687 136.93765625 24.9375 138.125 C25.29714844 139.26195312 25.65679687 140.39890625 26.02734375 141.5703125 C28.41396458 149.98578677 28.41396458 149.98578677 26.75 154.0625 C23.34734563 158.49171789 18.05534818 160.07472967 13 162 C11.78957031 162.49242187 10.57914062 162.98484375 9.33203125 163.4921875 C1.51337244 166.52620411 -4.87892397 168.04098348 -13 165 C-16.15255007 163.59268257 -19.20753327 162.08514156 -22.25390625 160.4609375 C-24.53910898 159.24519664 -26.79811543 158.17452594 -29.1875 157.1875 C-32 156 -32 156 -33 155 C-33.96614206 146.55813581 -31.9589296 139.85965675 -29 132 C-35.6 132 -42.2 132 -49 132 C-49.66 133.65 -50.32 135.3 -51 137 C-53.56098742 140.79732618 -55.46738851 142.992753 -60 144 C-66.57980383 144.23015775 -72.05977528 141.96607936 -77.98828125 139.33203125 C-81.61670215 137.72724328 -85.31396997 136.35443817 -89.0390625 134.9921875 C-91 134 -91 134 -93 131 C-93.375 127.5 -93.375 127.5 -93 124 C-90.04371536 120.94177451 -87.08757768 120.05464959 -82.86132812 119.84228516 C-81.59740234 119.82472168 -80.33347656 119.8071582 -79.03125 119.7890625 C-77.64191507 119.76100536 -76.25259229 119.73234098 -74.86328125 119.703125 C-72.6775736 119.6618017 -70.49209579 119.624905 -68.30615234 119.59863281 C-66.19321225 119.57104998 -64.08129625 119.52519797 -61.96875 119.4765625 C-60.07286133 119.4468335 -60.07286133 119.4468335 -58.13867188 119.41650391 C-55.00639152 119.27312158 -55.00639152 119.27312158 -53.06445312 117.47021484 C-52.71318359 116.98504395 -52.36191406 116.49987305 -52 116 C-53.12148437 115.92652344 -53.12148437 115.92652344 -54.265625 115.8515625 C-55.25046875 115.77679688 -56.2353125 115.70203125 -57.25 115.625 C-58.22453125 115.55539063 -59.1990625 115.48578125 -60.203125 115.4140625 C-62.96268726 115.00552395 -64.72729816 114.6091774 -67 113 C-68.64037855 106.21976866 -68.64037855 106.21976866 -66.6875 102.5 C-65 101 -65 101 -63 101 C-62.67 100.34 -62.34 99.68 -62 99 C-61.195625 98.7525 -60.39125 98.505 -59.5625 98.25 C-56.74822936 97.20619002 -56.74822936 97.20619002 -55.6875 94.25 C-54.4360253 88.3339378 -55.1755002 83.6963326 -56.7578125 77.953125 C-56.83773437 77.30859375 -56.91765625 76.6640625 -57 76 C-55 74 -55 74 -51.99609375 73.76953125 C-50.82175781 73.78371094 -49.64742187 73.79789062 -48.4375 73.8125 C-47.26058594 73.81894531 -46.08367188 73.82539062 -44.87109375 73.83203125 C-42 74 -42 74 -41 75 C-41.0859375 76.85546875 -41.0859375 76.85546875 -41.375 79.1875 C-41.47296875 80.00347656 -41.5709375 80.81945312 -41.671875 81.66015625 C-41.92867027 83.49135107 -42.26235914 85.31179569 -42.625 87.125 C-43.07697789 90.5901638 -42.61642509 93.57541619 -42 97 C-40.948125 96.896875 -39.89625 96.79375 -38.8125 96.6875 C-34.05016575 97.07785527 -33.11541094 98.54778788 -30 102 C-27.92284825 102.6852767 -27.92284825 102.6852767 -26 103 C-26.01160156 102.22914062 -26.02320312 101.45828125 -26.03515625 100.6640625 C-26.04417969 99.66117187 -26.05320312 98.65828125 -26.0625 97.625 C-26.07410156 96.62726563 -26.08570312 95.62953125 -26.09765625 94.6015625 C-26 92 -26 92 -25 90 C-24.34 90 -23.68 90 -23 90 C-22.505 88.515 -22.505 88.515 -22 87 C-21.34 87 -20.68 87 -20 87 C-19.86722656 86.32453125 -19.73445313 85.6490625 -19.59765625 84.953125 C-19.42105469 84.06109375 -19.24445313 83.1690625 -19.0625 82.25 C-18.88847656 81.36828125 -18.71445313 80.4865625 -18.53515625 79.578125 C-18.35855469 78.72734375 -18.18195313 77.8765625 -18 77 C-17.85433594 76.27296875 -17.70867187 75.5459375 -17.55859375 74.796875 C-17 73 -17 73 -15 71 C-14.53993654 68.79749008 -14.53993654 68.79749008 -14.375 66.375 C-14.30023438 65.55773437 -14.22546875 64.74046875 -14.1484375 63.8984375 C-14.07496094 62.95871094 -14.07496094 62.95871094 -14 62 C-15.32 61.34 -16.64 60.68 -18 60 C-18.09347732 55.5130885 -18.09500351 51.18860985 -17.375 46.75 C-16.72331501 43.15701592 -16.72331501 43.15701592 -17.95703125 40.6171875 C-19.11868197 37.70218383 -19.29958042 35.50153739 -19.3125 32.375 C-19.32925781 31.43398438 -19.34601563 30.49296875 -19.36328125 29.5234375 C-18.93311223 26.53538174 -18.1055871 26.02312285 -16 24 C-15.68110168 21.9280863 -15.68110168 21.9280863 -15.75 19.625 C-15.26555592 12.63663641 -11.97954499 6.66858582 -8 1 C-4.92750246 -1.03881343 -3.46224451 -1.22853837 0 0 Z M5 117 C6 119 6 119 6 119 Z " fill="#032822" transform="translate(96,3)"/>
<path d="M0 0 C0.33 0.33 0.66 0.66 1 1 C0.9140625 2.85546875 0.9140625 2.85546875 0.625 5.1875 C0.47804687 6.41146484 0.47804687 6.41146484 0.328125 7.66015625 C0.07132973 9.49135107 -0.26235914 11.31179569 -0.625 13.125 C-1.07697789 16.5901638 -0.61642509 19.57541619 0 23 C1.11375 23.309375 2.2275 23.61875 3.375 23.9375 C7 25 7 25 9 26 C9 26.66 9 27.32 9 28 C9.66 28 10.32 28 11 28 C13.67927341 32.01891012 13.15601248 34.24161923 13 39 C7.43930418 41.25433614 1.9214349 41.59961828 -4 42 C-2.92790316 43.61638681 -2.92790316 43.61638681 -1 45 C2.21161865 45.47584106 2.21161865 45.47584106 5.8984375 45.44140625 C6.57041168 45.45461411 7.24238586 45.46782196 7.9347229 45.48143005 C10.08152369 45.52229259 12.22789872 45.54397391 14.375 45.5625 C16.51482767 45.58635619 18.65425824 45.61461814 20.79385376 45.65428162 C22.74049825 45.68967119 24.68740534 45.7096139 26.63427734 45.72875977 C31.14877973 46.09257901 33.95281216 46.7839109 36.9375 50.25 C38 53 38 53 37.8125 56 C34.97018999 60.70451313 30.97859006 61.97326346 26 64 C25.0404541 64.39566162 25.0404541 64.39566162 24.06152344 64.79931641 C21.96460914 65.65579556 19.86002686 66.48888537 17.75 67.3125 C17.07694824 67.57933594 16.40389648 67.84617187 15.71044922 68.12109375 C10.88361465 69.93398936 6.80157744 70.96068454 1.82421875 69.25390625 C-0.37818175 67.74005066 -1.64866145 66.11719162 -3.1875 63.9375 C-3.69667969 63.22464844 -4.20585937 62.51179688 -4.73046875 61.77734375 C-5.14941406 61.19082031 -5.56835938 60.60429687 -6 60 C-7.54950268 58.45049732 -9.09990594 58.78344807 -11.25390625 58.68359375 C-12.10791016 58.64169922 -12.96191406 58.59980469 -13.84179688 58.55664062 C-14.73962891 58.51732422 -15.63746094 58.47800781 -16.5625 58.4375 C-17.46419922 58.39431641 -18.36589844 58.35113281 -19.29492188 58.30664062 C-21.52978485 58.20021858 -23.76476308 58.09820012 -26 58 C-25.72285156 58.86882812 -25.44570312 59.73765625 -25.16015625 60.6328125 C-24.61681641 62.36144531 -24.61681641 62.36144531 -24.0625 64.125 C-23.70285156 65.26195312 -23.34320313 66.39890625 -22.97265625 67.5703125 C-20.58603542 75.98578677 -20.58603542 75.98578677 -22.25 80.0625 C-25.65265437 84.49171789 -30.94465182 86.07472967 -36 88 C-37.21042969 88.49242187 -38.42085938 88.98484375 -39.66796875 89.4921875 C-47.48662756 92.52620411 -53.87892397 94.04098348 -62 91 C-65.15255007 89.59268257 -68.20753327 88.08514156 -71.25390625 86.4609375 C-73.53910898 85.24519664 -75.79811543 84.17452594 -78.1875 83.1875 C-81 82 -81 82 -82 81 C-82.96614206 72.55813581 -80.9589296 65.85965675 -78 58 C-84.6 58 -91.2 58 -98 58 C-98.66 59.65 -99.32 61.3 -100 63 C-102.56098742 66.79732618 -104.46738851 68.992753 -109 70 C-115.57980383 70.23015775 -121.05977528 67.96607936 -126.98828125 65.33203125 C-130.61670215 63.72724328 -134.31396997 62.35443817 -138.0390625 60.9921875 C-140 60 -140 60 -142 57 C-142.375 53.5 -142.375 53.5 -142 50 C-139.04371536 46.94177451 -136.08757768 46.05464959 -131.86132812 45.84228516 C-130.59740234 45.82472168 -129.33347656 45.8071582 -128.03125 45.7890625 C-126.64191507 45.76100536 -125.25259229 45.73234098 -123.86328125 45.703125 C-121.6775736 45.6618017 -119.49209579 45.624905 -117.30615234 45.59863281 C-115.19321225 45.57104998 -113.08129625 45.52519797 -110.96875 45.4765625 C-109.07286133 45.4468335 -109.07286133 45.4468335 -107.13867188 45.41650391 C-104.00639152 45.27312158 -104.00639152 45.27312158 -102.06445312 43.47021484 C-101.71318359 42.98504395 -101.36191406 42.49987305 -101 42 C-101.74765625 41.95101562 -102.4953125 41.90203125 -103.265625 41.8515625 C-104.25046875 41.77679688 -105.2353125 41.70203125 -106.25 41.625 C-107.22453125 41.55539063 -108.1990625 41.48578125 -109.203125 41.4140625 C-111.96268726 41.00552395 -113.72729816 40.6091774 -116 39 C-117.64037855 32.21976866 -117.64037855 32.21976866 -115.6875 28.5 C-114 27 -114 27 -112 27 C-111.67 26.34 -111.34 25.68 -111 25 C-110.195625 24.7525 -109.39125 24.505 -108.5625 24.25 C-105.74822936 23.20619002 -105.74822936 23.20619002 -104.6875 20.25 C-103.4360253 14.3339378 -104.1755002 9.6963326 -105.7578125 3.953125 C-105.83773437 3.30859375 -105.91765625 2.6640625 -106 2 C-104 0 -104 0 -100.99609375 -0.23046875 C-99.82175781 -0.21628906 -98.64742187 -0.20210938 -97.4375 -0.1875 C-95.67212891 -0.17783203 -95.67212891 -0.17783203 -93.87109375 -0.16796875 C-91 0 -91 0 -90 1 C-90.0859375 2.85546875 -90.0859375 2.85546875 -90.375 5.1875 C-90.47296875 6.00347656 -90.5709375 6.81945312 -90.671875 7.66015625 C-90.92867027 9.49135107 -91.26235914 11.31179569 -91.625 13.125 C-92.07697789 16.5901638 -91.61642509 19.57541619 -91 23 C-88.69 23 -86.38 23 -84 23 C-84.66 24.32 -85.32 25.64 -86 27 C-90.75 25.125 -90.75 25.125 -93 24 C-94.64255791 23.87885079 -96.29052478 23.82459233 -97.9375 23.8125 C-99.25041016 23.79123047 -99.25041016 23.79123047 -100.58984375 23.76953125 C-103.26244335 23.83336651 -103.26244335 23.83336651 -106 26 C-106.495 27.485 -106.495 27.485 -107 29 C-108.98 30.32 -110.96 31.64 -113 33 C-105.08 33.33 -97.16 33.66 -89 34 C-91.62310567 40.55776418 -94.28631385 45.67251714 -100 50 C-105.91182102 51.81599501 -112.33412503 51.22642808 -118.4375 51 C-120.9244483 50.95142961 -123.41061653 50.91839188 -125.89796448 50.8996582 C-127.43748959 50.88349132 -128.97696169 50.84755934 -130.51548767 50.78979492 C-132.82903968 50.7028215 -132.82903968 50.7028215 -136 51 C-136.66 51.99 -137.32 52.98 -138 54 C-137.33613281 54.10570312 -136.67226562 54.21140625 -135.98828125 54.3203125 C-132.25243178 55.17003513 -128.75333805 56.49965324 -125.1875 57.875 C-124.51396484 58.13152344 -123.84042969 58.38804687 -123.14648438 58.65234375 C-121.79032125 59.16885373 -120.43468474 59.68674862 -119.07958984 60.20605469 C-115.725637 61.486526 -112.36256224 62.74233395 -109 64 C-108.72486572 63.43724365 -108.44973145 62.8744873 -108.16625977 62.29467773 C-107.78139404 61.53743408 -107.39652832 60.78019043 -107 60 C-106.6093335 59.22793213 -106.21866699 58.45586426 -105.81616211 57.66040039 C-104.09078761 54.88445058 -102.5949657 53.01005393 -100 51 C-94.81773886 49.88604203 -89.80989357 50.14539979 -84.5625 50.4375 C-83.14921626 50.48270305 -81.7357934 50.52375755 -80.32226562 50.56054688 C-76.87525165 50.65152378 -73.4477074 50.82729481 -70 51 C-72.64 59.58 -75.28 68.16 -78 77 C-76.02 77.33 -74.04 77.66 -72 78 C-69.7175293 78.89550781 -69.7175293 78.89550781 -67.57421875 79.953125 C-66.37829102 80.51 -66.37829102 80.51 -65.15820312 81.078125 C-63.51449331 81.85775021 -61.8788608 82.65464383 -60.25195312 83.46875 C-55.93532076 85.44127388 -53.07760345 86.46326613 -48.4609375 84.96484375 C-46.96235893 84.33688987 -45.4751262 83.68122427 -44 83 C-42.46892395 82.38822006 -40.93636539 81.78013723 -39.40234375 81.17578125 C-37.91275511 80.55782963 -36.42446494 79.93673857 -34.9375 79.3125 C-34.16728516 78.99216797 -33.39707031 78.67183594 -32.60351562 78.34179688 C-30.73450451 77.56400964 -28.86707847 76.7824152 -27 76 C-27.31807617 74.97060303 -27.31807617 74.97060303 -27.64257812 73.92041016 C-28.59794305 70.8228231 -29.54902294 67.72393683 -30.5 64.625 C-30.83386719 63.54476562 -31.16773437 62.46453125 -31.51171875 61.3515625 C-31.82753906 60.3203125 -32.14335938 59.2890625 -32.46875 58.2265625 C-32.76201172 57.27346191 -33.05527344 56.32036133 -33.35742188 55.33837891 C-34 53 -34 53 -34 51 C-29.89372318 50.70052399 -25.79175202 50.48444161 -21.67700195 50.34082031 C-20.28232084 50.28091714 -18.88837954 50.19933941 -17.49633789 50.09472656 C-6.21534635 49.26899198 -6.21534635 49.26899198 -2.4430542 52.21655273 C0.61216587 55.45209246 2.86559361 59.09846787 5 63 C8.51287772 62.38291519 11.66195491 61.46276256 14.9765625 60.15234375 C15.894375 59.79462891 16.8121875 59.43691406 17.7578125 59.06835938 C19.67736502 58.31126066 21.59663375 57.55344207 23.515625 56.79492188 C24.43085938 56.43849609 25.34609375 56.08207031 26.2890625 55.71484375 C27.12131348 55.38605225 27.95356445 55.05726074 28.81103516 54.71850586 C31 54 31 54 34 54 C33.34 53.01 32.68 52.02 32 51 C29.34032192 50.79766443 26.89787232 50.77543817 24.24609375 50.875 C22.65301824 50.89172922 21.05991503 50.90597004 19.46679688 50.91796875 C16.95919257 50.95072872 14.45608747 50.99931043 11.94995117 51.09228516 C-1.95799309 51.56439602 -1.95799309 51.56439602 -7.05419922 47.66015625 C-9.36468782 44.87090932 -11.22209253 42.15068124 -13 39 C-13.99 37.35 -14.98 35.7 -16 34 C-3.625 33.505 -3.625 33.505 9 33 C6.69 31.35 4.38 29.7 2 28 C1.401875 27.236875 0.80375 26.47375 0.1875 25.6875 C-3.41610118 22.90757909 -7.6120081 23.55314273 -12 24 C-12.99 24.33 -13.98 24.66 -15 25 C-14.649375 24.030625 -14.29875 23.06125 -13.9375 22.0625 C-12.63972821 17.52943798 -13.27939653 13.58993077 -14 9 C-14.19192913 7.47971927 -14.37971608 5.95890735 -14.5625 4.4375 C-14.7790625 2.7359375 -14.7790625 2.7359375 -15 1 C-9.78021347 -1.27529157 -5.46747074 -1.13953601 0 0 Z " fill="#020303" transform="translate(145,77)"/>
<path d="M0 0 C0.495 0.99 0.495 0.99 1 2 C1.99 2.33 2.98 2.66 4 3 C3.67 3.99 3.34 4.98 3 6 C4.7325 6.928125 4.7325 6.928125 6.5 7.875 C9.08217176 9.66745324 9.89464347 10.42009643 10.46484375 13.55859375 C10.43989832 16.07095451 10.30498503 18.50686842 10 21 C7.36 21 4.72 21 2 21 C2.99 23.475 2.99 23.475 4 26 C11.26 26 18.52 26 26 26 C25.01 24.35 24.02 22.7 23 21 C24.65 21 26.3 21 28 21 C28.495 19.515 28.495 19.515 29 18 C33.27543529 15.1497098 36.98761219 15.01237396 42 16 C45.1204064 17.94028678 47.50636827 20.32125151 50 23 C51.98 24.98 51.98 24.98 54 27 C41.625 27.495 41.625 27.495 29 28 C34.05474375 36.88780216 34.05474375 36.88780216 42.07611084 42.80407715 C47.57533021 43.91295633 53.11448968 43.61890504 58.6875 43.375 C60.37167291 43.35294864 62.05594196 43.33727432 63.74023438 43.328125 C67.83163832 43.29219604 71.91207306 43.17026386 76 43 C76.99 44.98 76.99 44.98 78 47 C73.75700029 48.70549326 69.5046216 50.38623294 65.25 52.0625 C64.0434375 52.54783203 62.836875 53.03316406 61.59375 53.53320312 C60.43359375 53.98759766 59.2734375 54.44199219 58.078125 54.91015625 C57.00981445 55.33433838 55.94150391 55.75852051 54.84082031 56.19555664 C50.61162997 57.39314878 50.61162997 57.39314878 48 56 C46.84078402 54.21133826 45.75592812 52.37380201 44.71875 50.51171875 C42.16187838 46.84659271 40.88138895 45.254333 36.54296875 44.00244141 C32.48685149 43.69415611 28.55911705 43.6766559 24.5 43.8125 C23.09116172 43.81946963 21.6822896 43.82146473 20.2734375 43.81835938 C16.84844321 43.83008881 13.42379043 43.90844342 10 44 C12.64 51.92 15.28 59.84 18 68 C13.9676386 72.0323614 9.57361419 73.66746265 4.375 75.875 C3.41464844 76.31585938 2.45429687 76.75671875 1.46484375 77.2109375 C-3.20436467 79.18759018 -6.65814758 80.60529949 -11.61328125 78.98828125 C-13.08674278 78.35085902 -14.54910176 77.68723378 -16 77 C-17.60181077 76.38235541 -19.20738696 75.7743959 -20.81640625 75.17578125 C-22.39932223 74.55694579 -23.9813557 73.93584825 -25.5625 73.3125 C-26.38041016 72.99216797 -27.19832031 72.67183594 -28.04101562 72.34179688 C-30.02813622 71.56321746 -32.01418427 70.78190155 -34 70 C-32.76436272 64.03066602 -31.24508869 58.23803673 -29.375 52.4375 C-29.14554687 51.71498047 -28.91609375 50.99246094 -28.6796875 50.24804688 C-28.12325219 48.49759412 -27.56213636 46.74863027 -27 45 C-43.03189074 43.06926348 -43.03189074 43.06926348 -58.25683594 46.17773438 C-61.62703682 49.18789629 -63.46438118 52.75335041 -65 57 C-69.78635654 56.39618271 -73.95481344 54.98038695 -78.375 53.125 C-79.69635994 52.58271245 -81.01797265 52.04104036 -82.33984375 51.5 C-83.54769531 51.005 -84.75554687 50.51 -86 50 C-88.65834984 48.97436715 -91.32537605 47.98251492 -94 47 C-93.34 45.68 -92.68 44.36 -92 43 C-90.96182129 43.03778564 -89.92364258 43.07557129 -88.85400391 43.11450195 C-84.95842177 43.23864112 -81.06586367 43.27517377 -77.16845703 43.28686523 C-75.49032239 43.30377867 -73.81224163 43.34366185 -72.13525391 43.40795898 C-62.72045469 44.00735716 -62.72045469 44.00735716 -54.22888184 40.69281006 C-50.2675062 36.69111779 -47.5074765 32.014953 -45 27 C-53.25 27 -61.5 27 -70 27 C-68.35 25.35 -66.7 23.7 -65 22 C-64.34 22 -63.68 22 -63 22 C-62.896875 21.38125 -62.79375 20.7625 -62.6875 20.125 C-62 18 -62 18 -59 16 C-56.66015625 15.69921875 -56.66015625 15.69921875 -54.0625 15.6875 C-53.20785156 15.67074219 -52.35320313 15.65398437 -51.47265625 15.63671875 C-48.52442718 16.06987089 -47.14163177 16.95774789 -45 19 C-45 19.66 -45 20.32 -45 21 C-43.02 21 -41.04 21 -39 21 C-40.98 23.97 -40.98 23.97 -43 27 C-35.41 27 -27.82 27 -20 27 C-19.34 25.02 -18.68 23.04 -18 21 C-20.64 21 -23.28 21 -26 21 C-26.41905531 17.57438913 -26.61912129 14.40776842 -26 11 C-23.86038809 8.56009168 -21.91587355 7.56207511 -19 6 C-19.495 4.515 -19.495 4.515 -20 3 C-18.68 2.34 -17.36 1.68 -16 1 C-15.3125 4.3125 -15.3125 4.3125 -15 8 C-16.4375 9.9375 -16.4375 9.9375 -18 11 C-17.71125 11.721875 -17.4225 12.44375 -17.125 13.1875 C-16.75375 14.115625 -16.3825 15.04375 -16 16 C-15.62875 16.804375 -15.2575 17.60875 -14.875 18.4375 C-13.85916128 21.41245626 -13.85477474 23.87765691 -14 27 C-14.76699219 27.01933594 -15.53398438 27.03867188 -16.32421875 27.05859375 C-19.34398795 27.77273711 -19.34398795 27.77273711 -20.58203125 31.16015625 C-21.01333857 32.4540782 -21.42281005 33.75544157 -21.8125 35.0625 C-22.02841797 35.72572266 -22.24433594 36.38894531 -22.46679688 37.07226562 C-22.99663758 38.70888468 -23.5008206 40.35377006 -24 42 C-21.69 42.33 -19.38 42.66 -17 43 C-17.49051821 47.43802191 -18.90676568 49.29161938 -22.0625 52.375 C-25.66222205 56.132937 -25.66222205 56.132937 -26.5 61.0625 C-26.335 62.031875 -26.17 63.00125 -26 64 C-19.91928072 66.7025419 -14.51025584 67.32650252 -7.9375 67.375 C-6.80465576 67.39530273 -6.80465576 67.39530273 -5.64892578 67.41601562 C-0.16198582 67.37308369 3.9597303 66.16256747 9 64 C9.11320856 58.91696314 9.11320856 58.91696314 8 54 C7.34 53.67 6.68 53.34 6 53 C6 52.34 6 51.68 6 51 C4.515 50.505 4.515 50.505 3 50 C0 45.66666667 0 45.66666667 0 43 C2.64 42.67 5.28 42.34 8 42 C6.35 37.38 4.7 32.76 3 28 C1.02 27.67 -0.96 27.34 -3 27 C-1.98145579 21.51719818 -0.8461868 16.27481942 1 11 C1 10.34 1 9.68 1 9 C0.01 8.67 -0.98 8.34 -2 8 C-1.125 2.25 -1.125 2.25 0 0 Z " fill="#4FC89C" transform="translate(101,84)"/>
<path d="M0 0 C1.32 0 2.64 0 4 0 C4 1.65 4 3.3 4 5 C4.66 5 5.32 5 6 5 C5.67 6.98 5.34 8.96 5 11 C6.32 10.67 7.64 10.34 9 10 C9 12.31 9 14.62 9 17 C8.01 17 7.02 17 6 17 C6 17.99 6 18.98 6 20 C6.66 20.33 7.32 20.66 8 21 C8 21.99 8 22.98 8 24 C9.65 24.33 11.3 24.66 13 25 C14.08557892 28.25995807 13.91310151 30.10542427 12.78515625 33.328125 C12.51123047 34.12734375 12.23730469 34.9265625 11.95507812 35.75 C11.66052734 36.575 11.36597656 37.4 11.0625 38.25 C10.77181641 39.09046875 10.48113281 39.9309375 10.18164062 40.796875 C9.46378767 42.86805731 8.73633881 44.93533262 8 47 C8.99 47 9.98 47 11 47 C11.66 48.98 12.32 50.96 13 53 C10.525 53.495 10.525 53.495 8 54 C8 58.29 8 62.58 8 67 C5 66 5 66 3 63 C2.01 63 1.02 63 0 63 C-0.33 63.99 -0.66 64.98 -1 66 C-2.485 66.495 -2.485 66.495 -4 67 C-4 62.71 -4 58.42 -4 54 C-5.65 53.67 -7.3 53.34 -9 53 C-8.6875 50.625 -8.6875 50.625 -8 48 C-7.01 47.34 -6.02 46.68 -5 46 C-5.37253906 44.81921875 -5.74507813 43.6384375 -6.12890625 42.421875 C-6.60730125 40.86474619 -7.08513666 39.30744539 -7.5625 37.75 C-7.80935547 36.97269531 -8.05621094 36.19539063 -8.31054688 35.39453125 C-8.53935547 34.64042969 -8.76816406 33.88632812 -9.00390625 33.109375 C-9.21861572 32.41811523 -9.4333252 31.72685547 -9.65454102 31.01464844 C-10.05738217 28.66535853 -9.81902764 27.22841441 -9 25 C-6.67043688 22.90339319 -4.99874887 21.99958296 -2 21 C-1.67 19.35 -1.34 17.7 -1 16 C-2.32 16.33 -3.64 16.66 -5 17 C-5 14.69 -5 12.38 -5 10 C-3.68 10.33 -2.36 10.66 -1 11 C-1.33 9.02 -1.66 7.04 -2 5 C-1.34 5 -0.68 5 0 5 C0 3.35 0 1.7 0 0 Z " fill="#53D1A4" transform="translate(91,6)"/>
<path d="M0 0 C0.99 0.33 1.98 0.66 3 1 C4.09765625 3.14453125 4.09765625 3.14453125 5.0625 5.8125 C6.41837383 9.52478736 6.41837383 9.52478736 8.12890625 13.078125 C9.34030248 15.75080189 8.89960693 18.19245698 8.8046875 21.06640625 C8.84336789 23.26711037 8.84336789 23.26711037 11 25.375 C14.03452199 29.35781012 13.53129768 33.15760116 13 38 C12.3747292 40.34476551 11.7136591 42.68060793 11 45 C10.7872451 48.40407845 11.04403089 51.25537915 11.625 54.625 C12.00492529 58.04432761 11.91375967 59.23568047 10 62 C9.67 62.33 9.34 62.66 9 63 C9.061875 64.051875 9.12375 65.10375 9.1875 66.1875 C8.96846339 70.64124442 7.70265027 72.53722934 5 76 C4.67 75.01 4.34 74.02 4 73 C3.649375 72.0925 3.29875 71.185 2.9375 70.25 C1.59201433 65.58564968 1.46186796 61.61439613 3 57 C5.0625 56.3125 5.0625 56.3125 7 56 C6.67 54.02 6.34 52.04 6 50 C5.01 50 4.02 50 3 50 C3.49789328 44.39870062 5.12540115 39.74945306 7.2578125 34.55078125 C8.0444847 31.84711311 7.96266348 30.60162853 7 28 C5.68 27.67 4.36 27.34 3 27 C3 26.01 3 25.02 3 24 C2.01 23.67 1.02 23.34 0 23 C0.33 21.68 0.66 20.36 1 19 C1.99 19.33 2.98 19.66 4 20 C3.67 18.02 3.34 16.04 3 14 C2.01 14 1.02 14 0 14 C0.33 12.02 0.66 10.04 1 8 C0.34 8 -0.32 8 -1 8 C-1 6.35 -1 4.7 -1 3 C-2.32 3 -3.64 3 -5 3 C-5 4.65 -5 6.3 -5 8 C-5.66 8 -6.32 8 -7 8 C-6.67 9.98 -6.34 11.96 -6 14 C-6.99 14 -7.98 14 -9 14 C-9.33 15.98 -9.66 17.96 -10 20 C-8.68 19.67 -7.36 19.34 -6 19 C-6.75 23.75 -6.75 23.75 -9 26 C-9.680625 26.28875 -10.36125 26.5775 -11.0625 26.875 C-13.14765223 27.81276495 -13.14765223 27.81276495 -13.68334961 29.81347656 C-14.04102621 32.28329279 -13.74076828 33.73703871 -13.00390625 36.109375 C-12.77509766 36.86347656 -12.54628906 37.61757813 -12.31054688 38.39453125 C-11.94026367 39.56048828 -11.94026367 39.56048828 -11.5625 40.75 C-11.31951172 41.54277344 -11.07652344 42.33554687 -10.82617188 43.15234375 C-10.22645805 45.10435346 -9.61441879 47.05256883 -9 49 C-10.63412443 50.70840281 -11.86906094 51.93453047 -14 53 C-13.67 53.99 -13.34 54.98 -13 56 C-10.98491642 56.73323796 -10.98491642 56.73323796 -9 57 C-7.78642555 63.95047184 -8.28024184 68.50023898 -11 75 C-11.66 75 -12.32 75 -13 75 C-13 74.01 -13 73.02 -13 72 C-13.66 71.67 -14.32 71.34 -15 71 C-14.67 68.03 -14.34 65.06 -14 62 C-15.32 61.34 -16.64 60.68 -18 60 C-18.09347732 55.5130885 -18.09500351 51.18860985 -17.375 46.75 C-16.72331501 43.15701592 -16.72331501 43.15701592 -17.95703125 40.6171875 C-19.11868197 37.70218383 -19.29958042 35.50153739 -19.3125 32.375 C-19.32925781 31.43398438 -19.34601563 30.49296875 -19.36328125 29.5234375 C-18.93311223 26.53538174 -18.1055871 26.02312285 -16 24 C-15.68110168 21.9280863 -15.68110168 21.9280863 -15.75 19.625 C-15.26555592 12.63663641 -11.97954499 6.66858582 -8 1 C-4.92750246 -1.03881343 -3.46224451 -1.22853837 0 0 Z " fill="#030404" transform="translate(96,3)"/>
<path d="M0 0 C0.33 0.66 0.66 1.32 1 2 C1.99 2.33 2.98 2.66 4 3 C3.67 3.99 3.34 4.98 3 6 C4.155 6.61875 5.31 7.2375 6.5 7.875 C9.08217176 9.66745324 9.89464347 10.42009643 10.46484375 13.55859375 C10.43989832 16.07095451 10.30498503 18.50686842 10 21 C7.36 21 4.72 21 2 21 C2.66 22.65 3.32 24.3 4 26 C11.26 26 18.52 26 26 26 C25.01 24.35 24.02 22.7 23 21 C24.65 21 26.3 21 28 21 C28.33 20.01 28.66 19.02 29 18 C33.27543529 15.1497098 36.98761219 15.01237396 42 16 C45.1204064 17.94028678 47.50636827 20.32125151 50 23 C51.32 24.32 52.64 25.64 54 27 C41.625 27.495 41.625 27.495 29 28 C32.28574295 32.19238397 32.28574295 32.19238397 35.58203125 36.37646484 C39 40.77777778 39 40.77777778 39 43 C29.1 43 19.2 43 9 43 C4 31 4 31 3 28 C1.02 27.67 -0.96 27.34 -3 27 C-1.98145579 21.51719818 -0.8461868 16.27481942 1 11 C1 10.34 1 9.68 1 9 C0.01 8.67 -0.98 8.34 -2 8 C-1.125 2.25 -1.125 2.25 0 0 Z " fill="#57D1A6" transform="translate(101,84)"/>
<path d="M0 0 C0.66 0 1.32 0 2 0 C2.6875 3.3125 2.6875 3.3125 3 7 C1.5625 8.9375 1.5625 8.9375 0 10 C0.433125 11.0828125 0.433125 11.0828125 0.875 12.1875 C1.24625 13.115625 1.6175 14.04375 2 15 C2.37125 15.804375 2.7425 16.60875 3.125 17.4375 C4.14083872 20.41245626 4.14522526 22.87765691 4 26 C3.23171875 26.020625 2.4634375 26.04125 1.671875 26.0625 C-1.33901286 26.76946251 -1.33901286 26.76946251 -2.546875 30.125 C-2.96899166 31.40993374 -3.36934035 32.70218051 -3.75 34 C-5.95389049 40.95389049 -5.95389049 40.95389049 -7 42 C-9.21855264 42.08783542 -11.43988496 42.10694609 -13.66015625 42.09765625 C-14.65685585 42.09553383 -14.65685585 42.09553383 -15.6736908 42.09336853 C-17.80333899 42.08775518 -19.93288339 42.07520054 -22.0625 42.0625 C-23.50325369 42.05748671 -24.94400903 42.05292351 -26.38476562 42.04882812 C-29.92321102 42.03778145 -33.46159539 42.02050792 -37 42 C-34.67024891 35.84927583 -30.93309071 31.2652666 -27 26 C-35.25 26 -43.5 26 -52 26 C-50.35 24.35 -48.7 22.7 -47 21 C-46.34 21 -45.68 21 -45 21 C-44.896875 20.38125 -44.79375 19.7625 -44.6875 19.125 C-44 17 -44 17 -41 15 C-38.66015625 14.69921875 -38.66015625 14.69921875 -36.0625 14.6875 C-35.20785156 14.67074219 -34.35320313 14.65398437 -33.47265625 14.63671875 C-30.52442718 15.06987089 -29.14163177 15.95774789 -27 18 C-27 18.66 -27 19.32 -27 20 C-25.02 20 -23.04 20 -21 20 C-22.98 22.97 -22.98 22.97 -25 26 C-17.41 26 -9.82 26 -2 26 C-1.34 24.02 -0.68 22.04 0 20 C-2.64 20 -5.28 20 -8 20 C-8.41905531 16.57438913 -8.61912129 13.40776842 -8 10 C-5.86038809 7.56009168 -3.91587355 6.56207511 -1 5 C-1.495 3.515 -1.495 3.515 -2 2 C-1.34 1.34 -0.68 0.68 0 0 Z " fill="#54CDA2" transform="translate(83,85)"/>
<path d="M0 0 C1 2 1 2 0.44140625 4.1640625 C0.15136719 4.97617187 -0.13867188 5.78828125 -0.4375 6.625 C-0.86869141 7.85089844 -0.86869141 7.85089844 -1.30859375 9.1015625 C-1.53675781 9.72804688 -1.76492187 10.35453125 -2 11 C-1.01 11 -0.02 11 1 11 C1.66 12.98 2.32 14.96 3 17 C1.35 17.33 -0.3 17.66 -2 18 C-2 22.29 -2 26.58 -2 31 C-5 30 -5 30 -7 27 C-7.99 27 -8.98 27 -10 27 C-10.33 27.99 -10.66 28.98 -11 30 C-11.99 30.33 -12.98 30.66 -14 31 C-14 26.71 -14 22.42 -14 18 C-15.65 17.67 -17.3 17.34 -19 17 C-18.6875 14.625 -18.6875 14.625 -18 12 C-17.01 11.34 -16.02 10.68 -15 10 C-14.67 9.01 -14.34 8.02 -14 7 C-12.989375 6.95875 -11.97875 6.9175 -10.9375 6.875 C-6.14097918 6.23872683 -3.32485442 3.30464254 0 0 Z " fill="#52D0A2" transform="translate(101,42)"/>
<path d="M0 0 C0.99 0.33 1.98 0.66 3 1 C3.7734375 2.92578125 3.7734375 2.92578125 4.375 5.3125 C5.51020999 9.22706082 5.51020999 9.22706082 8.5625 11.9375 C11.91837004 14.77708234 12.08825528 17.44652337 12.8359375 21.66015625 C13 24 13 24 12 27 C14.18785263 26.01923848 15.75512761 25.29151474 17.3125 23.4375 C19.91350862 21.22182599 22.6843889 21.3127935 26 21 C25.67 22.65 25.34 24.3 25 26 C23.68 26.33 22.36 26.66 21 27 C21.99 28.65 22.98 30.3 24 32 C20.20847666 32.0867982 16.41720704 32.14032207 12.625 32.1875 C11.54476562 32.21263672 10.46453125 32.23777344 9.3515625 32.26367188 C7.8046875 32.27817383 7.8046875 32.27817383 6.2265625 32.29296875 C5.27346191 32.3086792 4.32036133 32.32438965 3.33837891 32.34057617 C2.18088135 32.17199097 2.18088135 32.17199097 1 32 C-1 29 -1 29 -1 26 C1.64 26 4.28 26 7 26 C6.98692862 22.57529825 6.83389715 19.33034397 6 16 C3.07956297 13.52351923 3.07956297 13.52351923 0 12 C0 11.01 0 10.02 0 9 C-0.66 8.34 -1.32 7.68 -2 7 C-1.43181818 1.43181818 -1.43181818 1.43181818 0 0 Z " fill="#030303" transform="translate(104,79)"/>
<path d="M0 0 C0.103125 0.53625 0.20625 1.0725 0.3125 1.625 C1.18092697 4.62502044 2.55620296 7.2379535 4 10 C3.01 11.485 3.01 11.485 2 13 C2 13.99 2 14.98 2 16 C1.030625 16.515625 0.06125 17.03125 -0.9375 17.5625 C-4.1749958 19.63258169 -4.1749958 19.63258169 -4.62109375 22.48046875 C-4.85177034 24.99661798 -4.99035803 27.47380505 -5 30 C-2.36 30 0.28 30 3 30 C2.34 31.98 1.68 33.96 1 36 C-6.59 36 -14.18 36 -22 36 C-20 32 -20 32 -19 31 C-20.65 30.67 -22.3 30.34 -24 30 C-23 28 -23 28 -21 26 C-18.5 26.1875 -18.5 26.1875 -16 27 C-15.34 27.99 -14.68 28.98 -14 30 C-11.94074861 30.72382467 -11.94074861 30.72382467 -10 31 C-10.01160156 30.22914062 -10.02320312 29.45828125 -10.03515625 28.6640625 C-10.04869141 27.15972656 -10.04869141 27.15972656 -10.0625 25.625 C-10.07410156 24.62726563 -10.08570312 23.62953125 -10.09765625 22.6015625 C-10 20 -10 20 -9 18 C-8.34 18 -7.68 18 -7 18 C-6.67 17.01 -6.34 16.02 -6 15 C-5.34 15 -4.68 15 -4 15 C-3.86722656 14.32453125 -3.73445313 13.6490625 -3.59765625 12.953125 C-3.42105469 12.06109375 -3.24445313 11.1690625 -3.0625 10.25 C-2.88847656 9.36828125 -2.71445313 8.4865625 -2.53515625 7.578125 C-1.21414914 1.21414914 -1.21414914 1.21414914 0 0 Z " fill="#020302" transform="translate(80,75)"/>
<path d="M0 0 C12.21 0 24.42 0 37 0 C35.0092846 3.31785901 33.132489 6.27073664 30.8125 9.3125 C30.28269531 10.00988281 29.75289062 10.70726562 29.20703125 11.42578125 C28.80871094 11.94527344 28.41039063 12.46476563 28 13 C23.21364346 12.39618271 19.04518656 10.98038695 14.625 9.125 C13.30364006 8.58271245 11.98202735 8.04104036 10.66015625 7.5 C9.45230469 7.005 8.24445312 6.51 7 6 C4.34165016 4.97436715 1.67462395 3.98251492 -1 3 C-0.67 2.01 -0.34 1.02 0 0 Z " fill="#53CFA3" transform="translate(8,128)"/>
<path d="M0 0 C12.21 0 24.42 0 37 0 C37.495 1.485 37.495 1.485 38 3 C33.75700029 4.70549326 29.5046216 6.38623294 25.25 8.0625 C23.44015625 8.79049805 23.44015625 8.79049805 21.59375 9.53320312 C19.85351562 10.21479492 19.85351562 10.21479492 18.078125 10.91015625 C17.00981445 11.33433838 15.94150391 11.75852051 14.84082031 12.19555664 C11.94702914 13.01499991 10.71397666 13.214565 8 12 C5.859375 9.53125 5.859375 9.53125 3.75 6.5 C3.04359375 5.4996875 2.3371875 4.499375 1.609375 3.46875 C0 1 0 1 0 0 Z " fill="#53D0A3" transform="translate(141,128)"/>
<path d="M0 0 C1.32 0 2.64 0 4 0 C4 1.65 4 3.3 4 5 C4.66 5 5.32 5 6 5 C5.67 6.98 5.34 8.96 5 11 C6.32 10.67 7.64 10.34 9 10 C9 12.31 9 14.62 9 17 C8.01 17 7.02 17 6 17 C6 17.99 6 18.98 6 20 C6.66 20.33 7.32 20.66 8 21 C8 21.99 8 22.98 8 24 C5.66705225 24.04241723 3.33297433 24.04092937 1 24 C0.67 23.67 0.34 23.34 0 23 C-0.98169476 24.12279462 -1.96027298 25.24831473 -2.9375 26.375 C-3.48277344 27.00148438 -4.02804688 27.62796875 -4.58984375 28.2734375 C-6.06958624 29.95632334 -6.06958624 29.95632334 -7 32 C-7.66 32 -8.32 32 -9 32 C-9.33 30.02 -9.66 28.04 -10 26 C-7.31158141 23.74754119 -5.35358125 22.11786042 -2 21 C-1.67 19.35 -1.34 17.7 -1 16 C-2.32 16.33 -3.64 16.66 -5 17 C-5 14.69 -5 12.38 -5 10 C-3.68 10.33 -2.36 10.66 -1 11 C-1.33 9.02 -1.66 7.04 -2 5 C-1.34 5 -0.68 5 0 5 C0 3.35 0 1.7 0 0 Z " fill="#50C99E" transform="translate(91,6)"/>
<path d="M0 0 C-0.72316361 4.44183161 -1.82644683 6.21314206 -5.0625 9.375 C-8.66222205 13.132937 -8.66222205 13.132937 -9.5 18.0625 C-9.335 19.031875 -9.17 20.00125 -9 21 C1.55300765 25.69022562 13.78967425 24.84360795 25 23 C24.01 24.485 24.01 24.485 23 26 C20.49731445 26.38818359 20.49731445 26.38818359 17.36328125 26.3984375 C15.66075195 26.40423828 15.66075195 26.40423828 13.92382812 26.41015625 C12.73208984 26.39855469 11.54035156 26.38695312 10.3125 26.375 C9.14009766 26.38660156 7.96769531 26.39820313 6.75976562 26.41015625 C0.48632555 26.38890236 -4.56605401 26.30193035 -10 23 C-11.4375 19.8125 -11.4375 19.8125 -12 17 C-12.66 17 -13.32 17 -14 17 C-13.52229477 15.06213915 -13.04278429 13.12472326 -12.5625 11.1875 C-12.29566406 10.10855469 -12.02882812 9.02960938 -11.75390625 7.91796875 C-11.23922588 5.9259157 -10.65062825 3.95188476 -10 2 C-31.45 1.67 -52.9 1.34 -75 1 C-75 0.67 -75 0.34 -75 0 C-49.94674283 -1.00431655 -25.05547053 -0.89658086 0 0 Z " fill="#4ABC93" transform="translate(84,127)"/>
<path d="M0 0 C3.63 0 7.26 0 11 0 C10.125 7.875 10.125 7.875 9 9 C8.83982118 13.16464926 9.01751804 16.94726192 10 21 C6.7 21 3.4 21 0 21 C0.165 20.38125 0.33 19.7625 0.5 19.125 C1.09449267 15.40942081 1.02635733 11.86359737 0.9375 8.109375 C1 6 1 6 2 5 C1.34 4.67 0.68 4.34 0 4 C0 2.68 0 1.36 0 0 Z " fill="#BDCBC7" transform="translate(42,78)"/>
<path d="M0 0 C0.66 0 1.32 0 2 0 C2.6875 3.3125 2.6875 3.3125 3 7 C1.5625 8.9375 1.5625 8.9375 0 10 C0.433125 11.0828125 0.433125 11.0828125 0.875 12.1875 C1.24625 13.115625 1.6175 14.04375 2 15 C2.556875 16.2065625 2.556875 16.2065625 3.125 17.4375 C4.14083872 20.41245626 4.14522526 22.87765691 4 26 C2.02 26.33 0.04 26.66 -2 27 C-1.125 22.25 -1.125 22.25 0 20 C-2.64 20 -5.28 20 -8 20 C-8.41905531 16.57438913 -8.61912129 13.40776842 -8 10 C-5.86038809 7.56009168 -3.91587355 6.56207511 -1 5 C-1.33 4.01 -1.66 3.02 -2 2 C-1.34 1.34 -0.68 0.68 0 0 Z " fill="#45B68E" transform="translate(83,85)"/>
<path d="M0 0 C3.66666667 0 7.33333333 0 11 0 C10.91621094 1.09699219 10.83242187 2.19398437 10.74609375 3.32421875 C10.64287811 4.77862096 10.54003306 6.23304951 10.4375 7.6875 C10.38142578 8.40873047 10.32535156 9.12996094 10.26757812 9.87304688 C10.00044841 13.77314064 9.99112404 17.21111028 11 21 C7.7 21 4.4 21 1 21 C1.33 19.68 1.66 18.36 2 17 C2.25709261 11.68675274 1.87169836 8.03018934 0 3 C0 2.01 0 1.02 0 0 Z " fill="#CCD7D4" transform="translate(132,78)"/>
<path d="M0 0 C0.33 0.33 0.66 0.66 1 1 C0.9140625 2.85546875 0.9140625 2.85546875 0.625 5.1875 C0.52703125 6.00347656 0.4290625 6.81945312 0.328125 7.66015625 C0.07132973 9.49135107 -0.26235914 11.31179569 -0.625 13.125 C-1.07697789 16.5901638 -0.61642509 19.57541619 0 23 C0.66 23 1.32 23 2 23 C1.67 23.99 1.34 24.98 1 26 C0.01 25.34 -0.98 24.68 -2 24 C-4.41287346 23.72076033 -4.41287346 23.72076033 -7 23.8125 C-7.86625 23.81894531 -8.7325 23.82539062 -9.625 23.83203125 C-12.14927465 23.91169563 -12.14927465 23.91169563 -15 25 C-14.649375 24.030625 -14.29875 23.06125 -13.9375 22.0625 C-12.63972821 17.52943798 -13.27939653 13.58993077 -14 9 C-14.19192913 7.47971927 -14.37971608 5.95890735 -14.5625 4.4375 C-14.706875 3.303125 -14.85125 2.16875 -15 1 C-9.78021347 -1.27529157 -5.46747074 -1.13953601 0 0 Z M-13 1 C-12.855625 2.299375 -12.71125 3.59875 -12.5625 4.9375 C-12.48128906 5.66839844 -12.40007812 6.39929688 -12.31640625 7.15234375 C-12.18113386 9.01140229 -12.18113386 9.01140229 -11 10 C-10.8546585 14.43291584 -10.91830719 17.67322878 -12 22 C-8.7 22 -5.4 22 -2 22 C-2.165 21.319375 -2.33 20.63875 -2.5 19.9375 C-3.58320181 13.57368937 -2.8060729 7.34782409 -2 1 C-2.99 1 -3.98 1 -5 1 C-7.66666667 1 -10.33333333 1 -13 1 Z " fill="#0D1916" transform="translate(145,77)"/>
<path d="M0 0 C0.33 0.66 0.66 1.32 1 2 C1.99 2.33 2.98 2.66 4 3 C3.67 3.99 3.34 4.98 3 6 C3.75796875 6.4021875 3.75796875 6.4021875 4.53125 6.8125 C6.62561065 8.07576515 8.31380754 9.22083453 10 11 C10.63902812 13.90516143 10.35678866 15.99278126 10 19 C6.7 19 3.4 19 0 19 C-0.33 21.64 -0.66 24.28 -1 27 C-1.66 27 -2.32 27 -3 27 C-1.98145579 21.51719818 -0.8461868 16.27481942 1 11 C1 10.34 1 9.68 1 9 C0.01 8.67 -0.98 8.34 -2 8 C-1.125 2.25 -1.125 2.25 0 0 Z " fill="#4FC99D" transform="translate(101,84)"/>
<path d="M0 0 C3.59905908 0.55550695 4.99909799 1.74887248 7.25 4.5625 C7.77078125 5.20316406 8.2915625 5.84382813 8.828125 6.50390625 C9.21484375 6.99761719 9.6015625 7.49132812 10 8 C8.234375 11.8984375 8.234375 11.8984375 6.125 12.8125 C3.82969717 13.01502672 2.18266076 12.70156953 0 12 C0 12.66 0 13.32 0 14 C-1.65 14 -3.3 14 -5 14 C-5.33 11.36 -5.66 8.72 -6 6 C-5.195625 5.7525 -4.39125 5.505 -3.5625 5.25 C-0.828919 4.27761141 -0.828919 4.27761141 -0.1875 1.875 C-0.125625 1.25625 -0.06375 0.6375 0 0 Z " fill="#052D26" transform="translate(91,68)"/>
<path d="M0 0 C1.98 0 3.96 0 6 0 C6.81604999 1.9151579 7.62770632 3.83218834 8.4375 5.75 C9.11619141 7.35101563 9.11619141 7.35101563 9.80859375 8.984375 C11 12 11 12 12 16 C9.03 16 6.06 16 3 16 C0.50611426 11.01222852 1.11163875 9.33016752 2 4 C1.34 4 0.68 4 0 4 C0 2.68 0 1.36 0 0 Z M3 9 C4 11 4 11 4 11 Z " fill="#020303" transform="translate(98,111)"/>
<path d="M0 0 C1.2065625 0.0309375 1.2065625 0.0309375 2.4375 0.0625 C2.49197047 1.47873216 2.53050508 2.89558191 2.5625 4.3125 C2.58570312 5.10140625 2.60890625 5.8903125 2.6328125 6.703125 C2.3258424 10.41132384 1.04021414 12.45978586 -1.5625 15.0625 C-0.9025 15.3925 -0.2425 15.7225 0.4375 16.0625 C-2.5325 16.0625 -5.5025 16.0625 -8.5625 16.0625 C-7.75360952 13.58210151 -6.94058099 11.10319788 -6.125 8.625 C-5.89490234 7.91794922 -5.66480469 7.21089844 -5.42773438 6.48242188 C-3.31429228 0.0808364 -3.31429228 0.0808364 0 0 Z " fill="#020303" transform="translate(84.5625,110.9375)"/>
<path d="M0 0 C1.17433594 0.01417969 2.34867188 0.02835937 3.55859375 0.04296875 C5.32396484 0.05263672 5.32396484 0.05263672 7.125 0.0625 C9.99609375 0.23046875 9.99609375 0.23046875 10.99609375 1.23046875 C10.91015625 3.0859375 10.91015625 3.0859375 10.62109375 5.41796875 C10.523125 6.23394531 10.42515625 7.04992187 10.32421875 7.890625 C10.06742348 9.72181982 9.73373461 11.54226444 9.37109375 13.35546875 C8.91911586 16.82063255 9.37966866 19.80588494 9.99609375 23.23046875 C12.30609375 23.23046875 14.61609375 23.23046875 16.99609375 23.23046875 C16.33609375 24.55046875 15.67609375 25.87046875 14.99609375 27.23046875 C10.24609375 25.35546875 10.24609375 25.35546875 7.99609375 24.23046875 C6.12552584 24.00296725 4.24923417 23.82084064 2.37109375 23.66796875 C1.36820313 23.58417969 0.3653125 23.50039062 -0.66796875 23.4140625 C-1.43882813 23.35347656 -2.2096875 23.29289062 -3.00390625 23.23046875 C-3.00390625 22.90046875 -3.00390625 22.57046875 -3.00390625 22.23046875 C0.29609375 21.90046875 3.59609375 21.57046875 6.99609375 21.23046875 C6.66609375 19.91046875 6.33609375 18.59046875 5.99609375 17.23046875 C5.52236816 11.19046746 6.93095907 6.82354184 8.99609375 1.23046875 C5.36609375 1.23046875 1.73609375 1.23046875 -2.00390625 1.23046875 C-2.00390625 2.55046875 -2.00390625 3.87046875 -2.00390625 5.23046875 C-0.68390625 5.89046875 0.63609375 6.55046875 1.99609375 7.23046875 C0.01609375 7.23046875 -1.96390625 7.23046875 -4.00390625 7.23046875 C-4.62890625 4.85546875 -4.62890625 4.85546875 -5.00390625 2.23046875 C-3.00390625 0.23046875 -3.00390625 0.23046875 0 0 Z " fill="#050505" transform="translate(44.00390625,76.76953125)"/>
<path d="M0 0 C3.3 0 6.6 0 10 0 C10.33 4.29 10.66 8.58 11 13 C8 12 8 12 6 9 C5.01 9 4.02 9 3 9 C2.67 9.99 2.34 10.98 2 12 C1.01 12.33 0.02 12.66 -1 13 C-0.67 8.71 -0.34 4.42 0 0 Z " fill="#51CCA0" transform="translate(88,60)"/>
<path d="M0 0 C1.5625 1.8125 1.5625 1.8125 3 4 C2.67 4.99 2.34 5.98 2 7 C0.68 7 -0.64 7 -2 7 C-2.33 7.99 -2.66 8.98 -3 10 C-3 9.01 -3 8.02 -3 7 C-6.3 7 -9.6 7 -13 7 C-13.33 7.99 -13.66 8.98 -14 10 C-14 9.01 -14 8.02 -14 7 C-15.65 6.67 -17.3 6.34 -19 6 C-19 5.01 -19 4.02 -19 3 C-12.73 3 -6.46 3 0 3 C0 2.01 0 1.02 0 0 Z " fill="#30A37A" transform="translate(101,53)"/>
<path d="M0 0 C0.66 0 1.32 0 2 0 C2.6875 3.3125 2.6875 3.3125 3 7 C1.5625 8.625 1.5625 8.625 0 10 C-0.25069913 12.62570704 -0.25069913 12.62570704 0 15 C-2.31 15 -4.62 15 -7 15 C-7.33 13.35 -7.66 11.7 -8 10 C-5.69 8.35 -3.38 6.7 -1 5 C-1.33 4.01 -1.66 3.02 -2 2 C-1.34 1.34 -0.68 0.68 0 0 Z " fill="#4BC197" transform="translate(83,85)"/>
<path d="M0 0 C1.98 0 3.96 0 6 0 C6.66 3.63 7.32 7.26 8 11 C4.7 11 1.4 11 -2 11 C-1.34 7.37 -0.68 3.74 0 0 Z " fill="#F3F3F3" transform="translate(44,88)"/>
<path d="M0 0 C1.98 0 3.96 0 6 0 C6.66 3.63 7.32 7.26 8 11 C4.7 11 1.4 11 -2 11 C-1.34 7.37 -0.68 3.74 0 0 Z " fill="#F5F5F5" transform="translate(135,88)"/>
<path d="M0 0 C0.66 0.66 1.32 1.32 2 2 C2.804375 1.835 3.60875 1.67 4.4375 1.5 C7 1 7 1 10 3 C10 3.99 10 4.98 10 6 C7.66705225 6.04241723 5.33297433 6.04092937 3 6 C2.67 5.67 2.34 5.34 2 5 C1.01830524 6.12279462 0.03972702 7.24831473 -0.9375 8.375 C-1.48277344 9.00148438 -2.02804688 9.62796875 -2.58984375 10.2734375 C-4.06958624 11.95632334 -4.06958624 11.95632334 -5 14 C-5.66 14 -6.32 14 -7 14 C-7.33 12.02 -7.66 10.04 -8 8 C-5.31158141 5.74754119 -3.35358125 4.11786042 0 3 C0 2.01 0 1.02 0 0 Z " fill="#41B98E" transform="translate(89,24)"/>
<path d="M0 0 C0.86625 -0.00515625 1.7325 -0.0103125 2.625 -0.015625 C5 0.25 5 0.25 8 2.25 C8 3.24 8 4.23 8 5.25 C2.39 5.25 -3.22 5.25 -9 5.25 C-7.36882064 0.35646192 -4.72483387 -0.02812401 0 0 Z " fill="#ECF0EF" transform="translate(47,99.75)"/>
<path d="M0 0 C0.85722656 0.0309375 1.71445313 0.061875 2.59765625 0.09375 C3.87962891 0.10921875 3.87962891 0.10921875 5.1875 0.125 C8.07700455 0.67277337 9.53594056 1.58289153 11.66015625 3.59375 C11.66015625 4.25375 11.66015625 4.91375 11.66015625 5.59375 C6.05015625 5.59375 0.44015625 5.59375 -5.33984375 5.59375 C-2.33984375 0.59375 -2.33984375 0.59375 0 0 Z " fill="#EDF1F0" transform="translate(135.33984375,99.40625)"/>
<path d="M0 0 C0.93423645 3.01031744 1.04449911 3.86650268 0 7 C-8.15162038 10.62294239 -17.46960725 8.35710794 -26 7 C-26 6.67 -26 6.34 -26 6 C-24.78183594 5.95101562 -23.56367187 5.90203125 -22.30859375 5.8515625 C-20.68487563 5.77647727 -19.06117874 5.70093198 -17.4375 5.625 C-16.63763672 5.5940625 -15.83777344 5.563125 -15.01367188 5.53125 C-10.05693085 5.28847085 -5.65037908 4.79659849 -1 3 C-0.67 2.01 -0.34 1.02 0 0 Z " fill="#053D32" transform="translate(109,143)"/>
<path d="M0 0 C0.99 0.66 1.98 1.32 3 2 C0.69 2 -1.62 2 -4 2 C-3.7834375 2.556875 -3.566875 3.11375 -3.34375 3.6875 C-1.3866682 9.05135382 -0.42901719 13.29017188 -1 19 C-2.5 22 -2.5 22 -4 24 C-5.24233206 21.51533588 -4.87532299 20.45989388 -4.4375 17.75 C-3.90499216 13.59643882 -4.47924779 10.93606455 -6 7 C-6.125 4.125 -6.125 4.125 -6 2 C-3.1875 0.875 -3.1875 0.875 0 0 Z " fill="#080808" transform="translate(136,76)"/>
<path d="M0 0 C1 2 1 2 0.44140625 3.9453125 C-0.37239583 5.96354167 -1.18619792 7.98177083 -2 10 C-6.29 10 -10.58 10 -15 10 C-14.67 9.01 -14.34 8.02 -14 7 C-12.989375 6.95875 -11.97875 6.9175 -10.9375 6.875 C-6.14097918 6.23872683 -3.32485442 3.30464254 0 0 Z " fill="#2CA178" transform="translate(101,42)"/>
<path d="M0 0 C0.81694336 0.02094727 1.63388672 0.04189453 2.47558594 0.06347656 C3.80976562 0.0828125 3.80976562 0.0828125 5.17089844 0.10253906 C6.55148438 0.1528125 6.55148438 0.1528125 7.95996094 0.20410156 C8.89582031 0.22214844 9.83167969 0.24019531 10.79589844 0.25878906 C13.10163109 0.30584483 15.40527039 0.37156444 17.70996094 0.45410156 C17.70996094 0.78410156 17.70996094 1.11410156 17.70996094 1.45410156 C9.78996094 1.94910156 9.78996094 1.94910156 1.70996094 2.45410156 C6.98996094 2.78410156 12.26996094 3.11410156 17.70996094 3.45410156 C17.70996094 3.78410156 17.70996094 4.11410156 17.70996094 4.45410156 C9.78996094 4.45410156 1.86996094 4.45410156 -6.29003906 4.45410156 C-2.29003906 0.45410156 -2.29003906 0.45410156 0 0 Z " fill="#7FDAB9" transform="translate(37.2900390625,106.5458984375)"/>
<path d="M0 0 C2.97 0.33 5.94 0.66 9 1 C9.33 1.99 9.66 2.98 10 4 C6.7 4 3.4 4 0 4 C-0.33 6.64 -0.66 9.28 -1 12 C-1.66 12 -2.32 12 -3 12 C-2.69106068 10.3743193 -2.3777305 8.74947252 -2.0625 7.125 C-1.88847656 6.22007813 -1.71445313 5.31515625 -1.53515625 4.3828125 C-1 2 -1 2 0 0 Z " fill="#39AB83" transform="translate(101,99)"/>
<path d="M0 0 C0.80566406 0.16242188 1.61132812 0.32484375 2.44140625 0.4921875 C6.64224916 1.09164917 10.70159173 1.14609166 14.9375 1.125 C15.71029297 1.12886719 16.48308594 1.13273438 17.27929688 1.13671875 C21.95577846 1.12881261 26.38749075 0.77386973 31 0 C30.01 1.485 30.01 1.485 29 3 C26.43383789 3.38818359 26.43383789 3.38818359 23.22265625 3.3984375 C22.06958984 3.40230469 20.91652344 3.40617188 19.72851562 3.41015625 C18.51873047 3.39855469 17.30894531 3.38695312 16.0625 3.375 C14.85658203 3.38660156 13.65066406 3.39820313 12.40820312 3.41015625 C10.67666992 3.40435547 10.67666992 3.40435547 8.91015625 3.3984375 C7.84933838 3.39505371 6.78852051 3.39166992 5.69555664 3.38818359 C2.70095521 2.95693495 1.80921861 2.36046185 0 0 Z " fill="#43A985" transform="translate(78,150)"/>
<path d="M0 0 C2.95857409 -0.05379226 5.91617721 -0.09357093 8.875 -0.125 C9.71675781 -0.14175781 10.55851563 -0.15851563 11.42578125 -0.17578125 C12.23144531 -0.18222656 13.03710938 -0.18867187 13.8671875 -0.1953125 C14.98262939 -0.21102295 14.98262939 -0.21102295 16.12060547 -0.22705078 C18 0 18 0 20 2 C17.17554408 2.94148531 15.85828382 3.07311695 12.98828125 2.87890625 C12.23095703 2.83056641 11.47363281 2.78222656 10.69335938 2.73242188 C9.90767578 2.67634766 9.12199219 2.62027344 8.3125 2.5625 C7.51521484 2.51029297 6.71792969 2.45808594 5.89648438 2.40429688 C3.93063478 2.27480978 1.96526335 2.13809959 0 2 C0 1.34 0 0.68 0 0 Z " fill="#5F9B8B" transform="translate(130,105)"/>
<path d="M0 0 C0.89203125 0.10183594 1.7840625 0.20367187 2.703125 0.30859375 C3.37859375 0.39238281 4.0540625 0.47617188 4.75 0.5625 C3.75 2.5625 3.75 2.5625 1.9375 3.25 C-0.43819767 3.58938538 -1.98335829 3.29106341 -4.25 2.5625 C-4.25 3.2225 -4.25 3.8825 -4.25 4.5625 C-5.9 4.5625 -7.55 4.5625 -9.25 4.5625 C-9.25 3.2425 -9.25 1.9225 -9.25 0.5625 C-5.98086376 -0.46865279 -3.38958652 -0.4013984 0 0 Z " fill="#1F634F" transform="translate(95.25,77.4375)"/>
<path d="M0 0 C6.7685324 -0.10152799 13.30324864 -0.03026944 20 1 C19.34 2.32 18.68 3.64 18 5 C13.25 3.125 13.25 3.125 11 2 C9.12943209 1.7724985 7.25314042 1.59037189 5.375 1.4375 C4.37210938 1.35371094 3.36921875 1.26992187 2.3359375 1.18359375 C1.56507812 1.12300781 0.79421875 1.06242187 0 1 C0 0.67 0 0.34 0 0 Z " fill="#16342D" transform="translate(41,99)"/>
<path d="M0 0 C1.98 0 3.96 0 6 0 C4.35 2.64 2.7 5.28 1 8 C0.01 6.68 -0.98 5.36 -2 4 C-1.34 2.68 -0.68 1.36 0 0 Z " fill="#52CA9F" transform="translate(56,105)"/>
<path d="M0 0 C3.3 0 6.6 0 10 0 C9.67 1.32 9.34 2.64 9 4 C8.67 3.34 8.34 2.68 8 2 C5.36 2 2.72 2 0 2 C0 1.34 0 0.68 0 0 Z " fill="#53D1A4" transform="translate(75,103)"/>
<path d="M0 0 C0.66 0 1.32 0 2 0 C3.2077558 3.62326739 2.54311128 4.64146369 1 8 C1.66 8.33 2.32 8.66 3 9 C3 9.99 3 10.98 3 12 C2.01 11.67 1.02 11.34 0 11 C0 7.37 0 3.74 0 0 Z " fill="#0A1C19" transform="translate(98,115)"/>
<path d="M0 0 C4.875 1.75 4.875 1.75 6 4 C3.03 4 0.06 4 -3 4 C-2.01 2.68 -1.02 1.36 0 0 Z " fill="#51CDA0" transform="translate(149,107)"/>
<path d="M0 0 C3.3 0 6.6 0 10 0 C10.33 1.32 10.66 2.64 11 4 C10.34 4.66 9.68 5.32 9 6 C8.34 6 7.68 6 7 6 C7 5.01 7 4.02 7 3 C4.69 2.34 2.38 1.68 0 1 C0 0.67 0 0.34 0 0 Z " fill="#05483A" transform="translate(91,80)"/>
<path d="M0 0 C0.66 1.32 1.32 2.64 2 4 C-1.3 4 -4.6 4 -8 4 C-7.67 3.34 -7.34 2.68 -7 2 C-4.69 2 -2.38 2 0 2 C0 1.34 0 0.68 0 0 Z " fill="#2CA077" transform="translate(83,98)"/>
<path d="M0 0 C0.33 0.66 0.66 1.32 1 2 C1.99 2.33 2.98 2.66 4 3 C3.01 4.485 3.01 4.485 2 6 C0.68 6 -0.64 6 -2 6 C-1.34 4.02 -0.68 2.04 0 0 Z " fill="#309C76" transform="translate(101,84)"/>
<path d="M0 0 C0.66 0 1.32 0 2 0 C2 1.32 2 2.64 2 4 C3.32 4.66 4.64 5.32 6 6 C4.02 6 2.04 6 0 6 C-0.38218767 4.34385343 -0.71395102 2.67542976 -1 1 C-0.67 0.67 -0.34 0.34 0 0 Z " fill="#17352D" transform="translate(40,78)"/>
<path d="M0 0 C0.33 0.66 0.66 1.32 1 2 C0.67 2.99 0.34 3.98 0 5 C-0.66 5 -1.32 5 -2 5 C-2.33 5.99 -2.66 6.98 -3 8 C-3.99 6.35 -4.98 4.7 -6 3 C-4.35 3 -2.7 3 -1 3 C-0.67 2.01 -0.34 1.02 0 0 Z " fill="#66C3A2" transform="translate(130,102)"/>
<path d="M0 0 C0.33 0 0.66 0 1 0 C1.04254356 1.99954746 1.04080783 4.00041636 1 6 C0 7 0 7 -2.5625 7.0625 C-3.7690625 7.0315625 -3.7690625 7.0315625 -5 7 C-4.0409375 6.6596875 -4.0409375 6.6596875 -3.0625 6.3125 C-0.72806339 5.14749104 -0.72806339 5.14749104 -0.25 2.375 C-0.1675 1.59125 -0.085 0.8075 0 0 Z " fill="#6C998E" transform="translate(142,78)"/>
<path d="M0 0 C1.32 0 2.64 0 4 0 C4 1.65 4 3.3 4 5 C2.68 5 1.36 5 0 5 C0 3.35 0 1.7 0 0 Z " fill="#47B78F" transform="translate(91,6)"/>
</svg>
