<svg width="1050" height="1050" viewBox="0 0 1050 1050" fill="none" xmlns="http://www.w3.org/2000/svg">
<g clip-path="url(#clip0_5548_3527)">
<rect width="1050" height="1050" fill="#001414"/>
<g filter="url(#filter0_f_5548_3527)">
<circle cx="525" cy="485" r="305" fill="#27A691" fill-opacity="0.63"/>
</g>
<g clip-path="url(#clip1_5548_3527)">
<path d="M524.287 337.212C531.779 337.085 552.479 338.101 552.479 338.101C552.479 338.101 667.662 343.942 718.332 367.817C728.237 372.897 723.031 389.787 709.442 385.342C695.854 380.897 637.564 363.753 553.749 362.102C553.749 362.102 530.001 361.594 524.287 361.594C518.572 361.721 494.824 362.102 494.824 362.102C411.009 363.753 352.719 380.897 339.131 385.342C325.543 389.787 320.336 372.897 330.241 367.817C380.912 343.942 496.094 338.101 496.094 338.101C496.094 338.101 516.794 337.212 524.287 337.212Z" fill="#26A590"/>
<path d="M524.286 318.29C537.494 318.417 555.146 319.433 555.146 319.433C606.07 321.464 681.25 332.005 726.713 350.546C747.921 273.334 784.114 215.552 790.337 207.171C796.559 198.789 801.258 191.043 768.367 206.028C735.603 221.013 738.27 234.347 708.172 235.109C678.075 235.871 668.169 212.886 662.201 190.027C656.232 167.168 668.55 147.357 654.2 153.834C639.85 160.31 634.516 175.423 603.403 186.217C572.29 197.011 552.479 169.327 551.082 159.422C562.13 153.072 570.258 140.246 568.226 140.5C539.399 159.041 530.128 106.085 530.128 106.085C530.128 106.085 538.129 102.529 540.034 94.4012C541.938 86.4006 539.399 79.924 534.954 75.6062C530.509 71.2885 524.159 71.2885 524.159 71.2885C524.159 71.2885 517.937 71.1615 513.365 75.6062C508.92 79.924 506.38 86.4006 508.285 94.4012C510.19 102.402 518.191 106.085 518.191 106.085C518.191 106.085 508.92 159.041 480.093 140.5C478.061 140.246 486.189 153.072 497.237 159.422C495.84 169.327 476.156 197.011 444.916 186.217C413.676 175.423 408.469 160.31 394.119 153.834C379.642 147.484 392.087 167.168 386.118 190.027C380.149 212.886 370.244 235.871 340.147 235.109C310.049 234.347 312.716 220.886 279.952 206.028C247.188 191.17 251.76 198.789 257.982 207.171C264.205 215.552 300.271 273.334 321.606 350.546C367.069 331.878 442.122 321.464 493.173 319.433C493.554 319.433 511.079 318.417 524.286 318.29Z" fill="#27A691"/>
<path d="M524.286 264.445C524.286 264.445 532.287 264.445 543.208 264.445C544.605 250.476 535.589 253.397 533.811 247.428C532.033 241.459 532.795 237.65 538.763 237.777C544.732 237.904 549.304 233.84 549.177 227.617C549.05 221.395 543.716 216.95 537.494 217.839C531.271 218.601 531.144 210.092 535.081 209.076C539.017 208.06 544.351 206.409 543.589 200.441C542.827 194.345 536.224 195.869 531.779 195.742C527.334 195.615 529.493 188.884 528.731 185.583C527.969 182.408 524.286 182.789 524.286 182.789C524.286 182.789 520.603 182.408 519.842 185.583C519.08 188.757 521.238 195.615 516.794 195.742C512.349 195.869 505.745 194.345 504.983 200.441C504.221 206.536 509.555 208.06 513.492 209.076C517.429 210.092 517.302 218.601 511.079 217.839C504.856 217.077 499.523 221.395 499.396 227.617C499.269 233.84 503.84 237.904 509.809 237.777C515.778 237.65 516.54 241.459 514.762 247.428C512.984 253.397 503.967 250.476 505.364 264.445C516.286 264.445 524.286 264.445 524.286 264.445Z" fill="#007A6D"/>
<path d="M585.243 538.229C581.941 542.546 578.893 541.531 577.242 541.531C575.718 541.531 524.286 541.658 524.286 541.658C524.286 541.658 472.854 541.531 471.33 541.531C469.806 541.531 466.631 542.546 463.33 538.229C460.028 533.911 463.33 524.641 472.854 521.339C482.379 518.037 487.077 508.004 490.887 499.623C494.824 491.241 498.253 493.781 499.269 488.447C499.523 487.051 499.777 485.781 499.904 484.511H548.542C548.796 485.781 548.923 487.178 549.177 488.447C550.193 493.781 553.622 491.241 557.558 499.623C561.368 508.004 566.067 518.037 575.591 521.339C585.243 524.641 588.545 534.038 585.243 538.229Z" fill="#01615A"/>
<path d="M562.638 351.435C562.511 357.023 554.384 358.801 553.368 359.436C552.352 359.944 538.002 416.71 548.669 481.095H500.031C510.698 416.71 496.348 360.071 495.332 359.436C494.316 358.801 486.189 356.896 486.062 351.435C485.935 345.848 494.316 345.975 496.983 340.387C499.65 334.926 494.824 319.179 494.316 317.782C486.697 291.114 475.267 271.557 483.522 267.112C491.776 262.667 524.287 262.667 524.287 262.667C524.287 262.667 556.67 262.54 565.051 267.112C573.306 271.557 561.876 291.241 554.257 317.782C553.749 319.306 549.05 334.926 551.59 340.387C554.257 345.975 562.765 345.975 562.638 351.435Z" fill="#003933"/>
<path d="M386.626 565.418L351.83 607.199H452.789L472.219 565.418H386.626Z" fill="#199684"/>
<path d="M349.544 608.723H235.124L214.932 624.216L304.462 666.251L349.544 608.723Z" fill="#199684"/>
<path d="M385.102 564.402L409.612 534.178H314.113L277.793 564.402H385.102Z" fill="#199684"/>
<path d="M524.286 608.215H593.625L617.118 667.013L524.286 705.999L431.582 667.013L455.075 608.215H524.286Z" fill="#199684"/>
<path d="M662.074 565.418L696.87 607.199H595.91L576.48 565.418H662.074Z" fill="#199684"/>
<path d="M699.156 608.723H813.576L833.768 624.216L744.238 666.251L699.156 608.723Z" fill="#199684"/>
<path d="M663.598 564.402L639.088 534.178H734.587L770.907 564.402H663.598Z" fill="#199684"/>
<path d="M462.312 548.631C462.312 546.273 464.224 544.361 466.582 544.361H524.649V552.901H466.582C464.224 552.901 462.312 550.989 462.312 548.631Z" fill="#01615A"/>
<path d="M586.985 548.631C586.985 546.273 585.073 544.361 582.715 544.361H524.649V552.901H582.715C585.073 552.901 586.985 550.989 586.985 548.631Z" fill="#01615A"/>
<path d="M524.286 349.53H564.289L562.257 346.229H524.286H486.443L484.411 349.53H524.286Z" fill="#26A590"/>
<path d="M554.109 534.114L575.457 564.855H473.841L495.189 534.114H554.109Z" fill="#199684"/>
<path d="M524.287 674.505C576.1 674.632 592.355 657.107 592.355 657.107V654.821C592.355 654.821 592.355 653.043 592.355 644.662C592.355 636.28 591.466 638.82 575.592 618.247C559.718 597.675 547.526 566.053 546.383 526.685C545.24 487.318 561.241 473.348 562.257 472.332C563.273 471.444 567.591 466.11 562.511 463.824C557.432 461.538 548.923 456.458 551.717 441.473C554.511 426.488 568.353 408.074 570.004 404.645C571.655 401.343 569.369 396.899 566.194 397.153C554.003 398.042 551.717 408.963 542.701 405.788C533.684 402.613 529.874 386.866 529.366 383.056C528.858 379.247 524.16 378.993 524.16 378.993C524.16 378.993 519.461 379.247 518.953 383.056C518.445 386.866 514.635 402.613 505.619 405.788C496.602 408.963 494.316 398.042 482.125 397.153C478.95 396.899 476.791 401.343 478.315 404.645C479.839 407.947 493.808 426.488 496.602 441.473C499.396 456.458 491.014 461.538 485.808 463.824C480.601 466.11 485.046 471.444 486.062 472.332C487.078 473.221 503.079 487.191 501.936 526.685C500.793 566.053 488.602 597.675 472.727 618.247C456.853 638.82 456.091 636.153 455.964 644.662C455.964 653.043 455.964 654.821 455.964 654.821V657.107C456.218 657.107 472.473 674.632 524.287 674.505Z" fill="#011714"/>
<path d="M524.287 404.518C524.287 404.518 516.667 414.17 508.286 414.424C499.904 414.678 496.475 413.535 488.983 407.566C481.49 401.597 492.487 412.392 496.043 414.424C499.599 416.455 513.238 420.265 524.287 407.566C529.24 412.646 539.399 423.313 549.685 415.566C550.701 414.424 538.383 423.948 524.287 404.518Z" fill="#27A691"/>
<path d="M542.193 491.508C542.193 491.508 518.953 550.56 563.273 617.358C552.828 596.024 528.065 553.327 542.193 491.508Z" fill="#27A691"/>
<path d="M524.286 663.676C560.987 664.184 575.846 654.694 579.909 651.139C563.146 661.933 524.286 662.025 524.286 662.025C524.286 662.025 485.427 661.933 468.664 651.139C472.727 654.694 487.586 664.184 524.286 663.676Z" fill="#27A691"/>
<path d="M337.062 463.319C337.062 480.814 333.46 498.253 326.964 513.165H367.044C360.401 498.11 356.711 481.026 356.711 463.319H337.062Z" fill="white"/>
<path d="M325.047 513.098H368.958C370.059 513.098 370.754 514.302 370.213 515.275L367.044 519.157H326.964L323.795 515.273C323.253 514.302 323.948 513.098 325.047 513.098Z" fill="#15907E"/>
<path d="M315.498 540.807H378.51C379.486 540.807 380.399 541.073 381.183 541.537C382.767 542.471 383.832 544.212 383.832 546.206H378.51H373.188H320.822H315.5H310.176C310.176 543.224 312.559 540.807 315.498 540.807Z" fill="#15907E"/>
<path d="M336.568 546.206H383.832V551.605H336.568H310.176V546.206H336.568Z" fill="white"/>
<path d="M316.462 528.169C317.792 527.372 319.077 526.497 320.307 525.552C321.536 524.609 322.71 523.595 323.826 522.518C324.399 521.967 324.953 521.397 325.493 520.813C325.702 520.585 326.907 519.196 326.907 519.196H346.809H347.004H347.199H367.099C367.099 519.196 368.304 520.585 368.514 520.813C369.053 521.397 369.61 521.967 370.18 522.518C371.296 523.595 372.47 524.609 373.699 525.552C374.931 526.497 376.215 527.372 377.544 528.169C380.432 529.9 383.832 531.467 383.832 535.407C383.832 538.389 381.449 540.806 378.51 540.806H347.199H347.004H346.809H315.498C312.559 540.806 310.176 538.389 310.176 535.407C310.176 531.467 313.576 529.9 316.462 528.169Z" fill="white"/>
<path d="M334.093 460.682C334.093 459.391 334.984 458.315 336.177 458.047V457.98H357.252C358.724 457.98 359.916 459.19 359.916 460.682C359.916 462.175 358.724 463.385 357.252 463.385C357.054 463.385 356.86 463.361 356.674 463.318H337.336C337.15 463.361 336.957 463.385 336.758 463.385C336.559 463.385 336.366 463.361 336.18 463.318C334.986 463.05 334.093 461.973 334.093 460.682Z" fill="#15907E"/>
<path d="M331.071 421.75L334.16 432.441H339.152L337.815 422.46C337.675 421.434 338.462 420.52 339.483 420.52H347.283H355.082C356.103 420.52 356.891 421.434 356.752 422.46L355.416 432.441H360.408L363.496 421.75C363.706 421.021 364.364 420.52 365.113 420.52H370.546C371.671 420.52 372.479 421.617 372.164 422.712L365.919 444.339C365.392 446.161 363.746 447.413 361.875 447.413H347.285H332.694C330.823 447.413 329.175 446.161 328.65 444.339L322.406 422.712C322.087 421.617 322.896 420.52 324.021 420.52H329.454C330.202 420.52 330.862 421.021 331.071 421.75Z" fill="white"/>
<path d="M381.05 535.207C381.05 533.407 380.067 531.84 378.618 531.028C380.698 531.11 382.363 532.841 382.363 534.972C382.363 536.81 381.123 538.351 379.446 538.793C380.427 537.917 381.05 536.637 381.05 535.207Z" fill="#084435"/>
<path d="M332.838 450.567H361.591C363.646 450.567 365.311 452.256 365.311 454.34C365.311 456.414 363.662 458.095 361.622 458.112V458.114H332.975C332.698 458.114 332.428 458.08 332.167 458.021C330.503 457.646 329.257 456.142 329.257 454.34C329.256 452.539 330.393 450.567 332.838 450.567Z" fill="white"/>
<path d="M690.103 463.319C690.103 480.814 686.5 498.253 680.004 513.165H720.085C713.441 498.11 709.751 481.026 709.751 463.319H690.103Z" fill="white"/>
<path d="M678.088 513.098H721.999C723.1 513.098 723.795 514.302 723.253 515.275L720.085 519.157H680.004L676.835 515.273C676.294 514.302 676.989 513.098 678.088 513.098Z" fill="#15907E"/>
<path d="M668.538 540.807H731.551C732.526 540.807 733.44 541.073 734.223 541.537C735.808 542.471 736.873 544.212 736.873 546.206H731.551H726.229H673.862H668.54H663.217C663.217 543.224 665.6 540.807 668.538 540.807Z" fill="#15907E"/>
<path d="M689.609 546.206H736.873V551.605H689.609H663.217V546.206H689.609Z" fill="white"/>
<path d="M669.503 528.169C670.832 527.372 672.117 526.497 673.348 525.552C674.577 524.609 675.751 523.595 676.867 522.518C677.439 521.967 677.993 521.397 678.533 520.813C678.743 520.585 679.948 519.196 679.948 519.196H699.85H700.045H700.24H720.14C720.14 519.196 721.345 520.585 721.554 520.813C722.094 521.397 722.65 521.967 723.221 522.518C724.336 523.595 725.511 524.609 726.739 525.552C727.972 526.497 729.255 527.372 730.584 528.169C733.472 529.9 736.873 531.467 736.873 535.407C736.873 538.389 734.49 540.806 731.551 540.806H700.24H700.045H699.85H668.538C665.6 540.806 663.217 538.389 663.217 535.407C663.217 531.467 666.617 529.9 669.503 528.169Z" fill="white"/>
<path d="M687.133 460.682C687.133 459.391 688.025 458.315 689.217 458.047V457.98H710.293C711.764 457.98 712.957 459.19 712.957 460.682C712.957 462.175 711.764 463.385 710.293 463.385C710.094 463.385 709.901 463.361 709.715 463.318H690.377C690.191 463.361 689.997 463.385 689.799 463.385C689.6 463.385 689.407 463.361 689.221 463.318C688.027 463.05 687.133 461.973 687.133 460.682Z" fill="#15907E"/>
<path d="M684.112 421.75L687.2 432.441H692.192L690.856 422.46C690.715 421.434 691.503 420.52 692.524 420.52H700.323H708.123C709.144 420.52 709.931 421.434 709.793 422.46L708.456 432.441H713.448L716.537 421.75C716.746 421.021 717.405 420.52 718.154 420.52H723.587C724.712 420.52 725.52 421.617 725.204 422.712L718.96 444.339C718.433 446.161 716.787 447.413 714.916 447.413H700.325H685.734C683.864 447.413 682.216 446.161 681.691 444.339L675.446 422.712C675.127 421.617 675.937 420.52 677.062 420.52H682.495C683.242 420.52 683.902 421.021 684.112 421.75Z" fill="white"/>
<path d="M734.091 535.207C734.091 533.407 733.108 531.84 731.659 531.028C733.739 531.11 735.403 532.841 735.403 534.972C735.403 536.81 734.164 538.351 732.486 538.793C733.467 537.917 734.091 536.637 734.091 535.207Z" fill="#084435"/>
<path d="M685.879 450.567H714.632C716.687 450.567 718.351 452.256 718.351 454.34C718.351 456.414 716.703 458.095 714.663 458.112V458.114H686.015C685.738 458.114 685.468 458.08 685.208 458.021C683.543 457.646 682.298 456.142 682.298 454.34C682.296 452.539 683.434 450.567 685.879 450.567Z" fill="white"/>
</g>
<path d="M233.113 760.157C242.882 760.726 247.767 764.236 247.767 770.686C247.767 772.772 246.581 777.704 244.21 785.482C241.839 793.165 239.183 801.369 236.243 810.095C233.302 818.821 230.457 828.685 227.706 839.688C224.956 850.69 223.296 860.033 222.727 867.715C217.226 867.336 213.242 866.34 210.776 864.728C208.31 863.115 207.077 860.744 207.077 857.614C207.077 854.769 208.168 849.694 210.349 842.391C212.626 835.088 215.613 825.887 219.312 814.79C223.011 803.693 225.809 794.872 227.706 788.327C226.568 789.94 223.486 794.398 218.459 801.701C213.527 808.909 209.875 814.268 207.504 817.778C205.227 821.287 202.145 826.124 198.256 832.29C194.462 838.455 191.285 844.098 188.724 849.22C186.163 854.342 184.029 859.274 182.321 864.016C176.346 864.585 172.362 863.874 170.371 861.882C168.474 859.796 167.525 856.334 167.525 851.496C167.525 833.855 168.474 811.186 170.371 783.49C156.238 827.5 148.508 855.575 147.18 867.715C141.679 867.241 137.695 866.245 135.229 864.728C132.763 863.115 131.53 860.649 131.53 857.33C131.53 854.294 133 848.509 135.941 839.972C138.976 831.341 142.295 822.52 145.9 813.51C149.599 804.499 153.108 795.014 156.428 785.055C159.842 775.096 161.834 767.366 162.403 761.865C166.577 761.58 169.991 761.817 172.647 762.576C175.303 763.24 177.294 764.568 178.622 766.56C180.045 768.551 180.994 770.828 181.468 773.389C182.037 775.95 182.416 779.317 182.606 783.49C182.701 788.896 182.559 798.524 182.179 812.371C181.8 826.124 181.61 834.661 181.61 837.98C184.835 832.1 190.431 823.658 198.398 812.656C206.46 801.559 213.859 791.173 220.593 781.498C227.327 771.824 231.5 764.71 233.113 760.157V760.3V760.157ZM318.563 817.066C319.512 817.066 320.507 817.446 321.551 818.205C322.594 818.869 323.258 819.627 323.543 820.481L322.973 821.477C319.464 828.78 315.907 835.23 312.303 840.826C308.699 846.422 305.095 851.117 301.49 854.911C297.981 858.61 294.803 861.645 291.958 864.016C289.113 866.293 285.935 868.522 282.426 870.703C281.288 874.402 280.102 877.959 278.869 881.374C277.636 884.883 276.071 888.819 274.174 893.182C272.372 897.64 270.333 901.671 268.056 905.275C265.875 908.88 263.456 912.247 260.8 915.377C258.239 918.602 255.347 921.068 252.122 922.775C248.992 924.577 245.719 925.478 242.305 925.478C238.226 925.478 234.954 924.198 232.488 921.637C230.022 919.076 228.789 915.709 228.789 911.535C228.789 908.975 229.216 906.461 230.069 903.995C230.923 901.529 231.919 899.3 233.057 897.308C234.195 895.411 235.903 893.372 238.179 891.19C240.55 889.104 242.589 887.349 244.297 885.926C246.099 884.598 248.565 882.939 251.695 880.947C254.92 878.955 257.433 877.437 259.235 876.394C261.132 875.446 263.835 874.023 267.345 872.126C267.819 871.841 268.199 871.652 268.483 871.557C270.285 865.961 272.277 859.274 274.459 851.496C267.914 862.119 260.8 867.431 253.118 867.431C249.419 867.431 246.336 866.103 243.87 863.447C241.404 860.697 240.171 856.855 240.171 851.923C240.171 847.276 241.878 838.834 245.293 826.599C248.802 814.363 250.889 805.732 251.553 800.705C256.01 800.705 259.33 801.369 261.512 802.697C263.788 803.93 264.926 806.159 264.926 809.384C264.926 812.134 263.266 818.679 259.947 829.017C256.722 839.356 255.109 846.327 255.109 849.931C255.109 853.441 256.248 855.195 258.524 855.195C261.654 855.195 264.974 852.777 268.483 847.94C272.087 843.102 275.36 836.51 278.3 828.164C281.335 819.722 283.564 810.759 284.987 801.274C289.919 801.179 293.333 801.843 295.23 803.266C297.222 804.689 298.218 807.012 298.218 810.237C298.218 814.79 293.855 831.91 285.129 861.598C291.01 857.33 296.558 851.828 301.775 845.094C307.086 838.265 312.588 829.16 318.278 817.778L318.563 817.066ZM244.581 914.096C250.082 914.096 256.817 903.331 264.784 881.8C248.944 892.518 241.024 901.813 241.024 909.686C241.024 911.109 241.309 912.199 241.878 912.958C242.542 913.717 243.443 914.096 244.581 914.096ZM339.351 867.573C331.384 867.573 324.935 864.68 320.002 858.895C315.165 853.109 312.747 845.331 312.747 835.562C312.747 827.025 314.501 818.205 318.011 809.099C321.52 799.899 326.025 791.742 331.526 784.628C337.028 777.515 343.288 771.681 350.306 767.129C357.325 762.576 364.107 760.3 370.651 760.3C376.058 760.3 380.279 762.007 383.314 765.421C386.444 768.741 388.009 773.009 388.009 778.226C388.009 784.865 386.301 791.268 382.887 797.433C379.472 803.503 375.678 806.538 371.505 806.538C367.806 806.538 365.103 804.262 363.396 799.709C366.62 797.053 369.418 793.639 371.79 789.466C374.256 785.292 375.489 781.451 375.489 777.941C375.489 774.242 373.829 772.393 370.509 772.393C366.905 772.393 362.779 774.242 358.131 777.941C353.484 781.546 349.121 786.193 345.042 791.884C340.964 797.48 337.502 804.214 334.656 812.087C331.906 819.864 330.531 827.452 330.531 834.85C330.531 841.49 331.953 846.469 334.799 849.789C337.644 853.014 341.438 854.626 346.181 854.626C351.492 854.626 357.136 852.682 363.111 848.793C369.181 844.904 374.493 840.209 379.046 834.708C383.693 829.207 387.534 823.564 390.57 817.778L390.854 817.066C391.803 817.066 392.799 817.446 393.842 818.205C394.98 818.869 395.644 819.627 395.834 820.481L395.407 821.477C392.467 827.168 389.005 832.669 385.021 837.98C381.037 843.292 376.627 848.224 371.79 852.777C367.047 857.235 361.831 860.839 356.14 863.59C350.449 866.245 344.853 867.573 339.351 867.573ZM459.115 817.066C460.063 817.066 461.059 817.446 462.103 818.205C463.241 818.869 463.905 819.627 464.095 820.481L463.525 821.477C463.146 822.236 462.577 823.421 461.818 825.034C460.016 828.638 458.593 831.436 457.55 833.428C456.602 835.325 455.179 838.028 453.282 841.537C451.385 844.952 449.772 847.655 448.445 849.647C447.117 851.639 445.409 853.915 443.323 856.476C441.331 859.037 439.481 861.029 437.774 862.451C436.067 863.779 434.17 864.965 432.083 866.008C429.997 866.957 427.91 867.431 425.823 867.431C422.598 867.431 419.895 866.245 417.714 863.874C415.627 861.408 414.584 857.899 414.584 853.346C414.584 849.362 415.437 844.667 417.145 839.261C418.852 833.855 420.559 828.922 422.266 824.465C424.069 820.007 424.97 816.972 424.97 815.359C424.97 813.272 424.021 812.229 422.124 812.229C419.374 812.229 416.338 814.079 413.019 817.778C409.794 821.477 406.948 825.792 404.482 830.725C402.016 835.562 399.93 840.494 398.222 845.521C396.894 849.979 395.472 857.567 393.954 868.285C389.591 869.043 385.987 868.806 383.141 867.573C380.296 866.245 378.873 863.732 378.873 860.033C378.873 858.325 379.585 854.911 381.007 849.789C382.43 844.667 384.517 837.554 387.267 828.448C390.018 819.248 392.247 811.47 393.954 805.116C398.697 787.569 401.779 773.389 403.202 762.576C407.375 762.766 411.074 763.667 414.299 765.279C417.619 766.892 419.279 769.31 419.279 772.535C419.279 773.484 419.089 774.811 418.71 776.519C418.33 778.226 417.666 780.502 416.718 783.348C415.864 786.193 415.011 788.991 414.157 791.742C413.303 794.492 412.07 798.239 410.458 802.981C408.845 807.724 407.47 811.897 406.332 815.501C414.015 805.353 422.029 800.278 430.376 800.278C433.601 800.278 436.304 801.274 438.485 803.266C440.667 805.258 441.758 808.008 441.758 811.518C441.758 815.312 439.908 822.141 436.209 832.005C432.51 841.774 430.66 848.177 430.66 851.212C430.66 853.583 431.467 854.769 433.079 854.769C434.692 854.769 436.446 853.868 438.343 852.065C440.335 850.169 442.517 847.276 444.888 843.387C447.354 839.403 449.535 835.609 451.432 832.005C453.329 828.401 455.795 823.658 458.83 817.778L459.115 817.066ZM511.687 817.066C512.541 817.066 513.489 817.446 514.532 818.205C515.671 818.869 516.335 819.627 516.524 820.481L516.097 821.477C514.011 825.555 511.782 829.539 509.411 833.428C507.134 837.222 504.384 841.253 501.159 845.521C497.934 849.694 494.662 853.346 491.342 856.476C488.117 859.606 484.513 862.214 480.529 864.301C476.546 866.293 472.609 867.289 468.721 867.289C463.125 867.289 458.572 865.249 455.062 861.171C451.553 856.998 449.798 851.496 449.798 844.667C449.798 839.925 450.699 834.993 452.502 829.871C454.399 824.654 456.865 819.864 459.9 815.501C463.03 811.044 466.871 807.392 471.424 804.546C475.977 801.606 480.719 800.136 485.651 800.136C490.299 800.136 494.14 801.464 497.175 804.12C500.305 806.681 501.87 810 501.87 814.079C501.87 817.967 500.59 821.667 498.029 825.176C495.563 828.59 492.385 831.483 488.497 833.855C484.608 836.131 480.672 838.028 476.688 839.545C472.704 840.968 468.91 841.917 465.306 842.391C465.211 843.055 465.164 843.719 465.164 844.383C465.164 847.702 465.875 850.263 467.298 852.065C468.815 853.868 470.855 854.769 473.416 854.769C477.399 854.769 481.952 852.682 487.074 848.509C492.29 844.335 496.938 839.498 501.017 833.997C505.19 828.496 508.604 823.089 511.26 817.778L511.687 817.066ZM484.655 812.087C481.43 812.087 478.111 814.316 474.696 818.774C471.376 823.137 468.815 828.164 467.013 833.855C473.084 832.242 478.158 829.681 482.237 826.172C486.41 822.662 488.497 819.295 488.497 816.071C488.497 814.932 488.165 813.984 487.501 813.225C486.837 812.466 485.888 812.087 484.655 812.087ZM562.068 817.066C563.017 817.066 564.013 817.446 565.056 818.205C566.194 818.869 566.858 819.627 567.048 820.481L566.479 821.477C560.977 832.479 555.381 841.348 549.69 848.082C544.094 854.721 537.834 859.938 530.91 863.732C526.737 866.577 521.9 868 516.399 868C509.664 868 504.543 866.15 501.033 862.451C497.524 858.657 495.769 854.247 495.769 849.22C495.769 845.711 496.765 842.723 498.757 840.257C500.654 837.791 503.025 836.558 505.87 836.558C507.862 836.558 509.522 837.222 510.85 838.55C512.178 839.877 512.937 841.869 513.126 844.525C510.85 845.474 509.712 847.37 509.712 850.216C509.712 852.018 510.328 853.488 511.561 854.626C512.889 855.765 514.454 856.334 516.256 856.334C518.817 856.334 520.999 855.195 522.801 852.919C524.603 850.643 525.504 847.181 525.504 842.533C525.504 838.834 524.698 833.285 523.085 825.887C521.568 818.394 520.762 813.557 520.667 811.376C520.003 813.083 519.481 814.363 519.102 815.217L516.683 820.481C515.924 820.671 514.976 820.386 513.838 819.627C512.7 818.869 511.988 818.015 511.704 817.066L515.26 809.526C518.675 802.507 522.232 797.291 525.931 793.876C529.63 790.461 533.946 788.28 538.878 787.331C539.921 787.426 541.201 788.564 542.719 790.746C544.331 792.927 545.327 795.204 545.707 797.575C541.059 799.377 537.929 801.132 536.317 802.839C534.704 804.452 533.898 806.538 533.898 809.099C533.898 811.091 534.894 816.64 536.886 825.745C538.878 834.756 539.874 841.395 539.874 845.663C539.874 846.801 539.826 847.892 539.731 848.935C547.224 842.391 554.575 832.005 561.784 817.778L562.068 817.066ZM612.364 817.066C613.312 817.066 614.308 817.446 615.351 818.205C616.49 818.869 617.154 819.627 617.343 820.481L616.774 821.477C611.273 832.479 605.677 841.348 599.986 848.082C594.39 854.721 588.13 859.938 581.206 863.732C577.033 866.577 572.195 868 566.694 868C559.96 868 554.838 866.15 551.329 862.451C547.819 858.657 546.065 854.247 546.065 849.22C546.065 845.711 547.061 842.723 549.052 840.257C550.949 837.791 553.321 836.558 556.166 836.558C558.158 836.558 559.818 837.222 561.146 838.55C562.473 839.877 563.232 841.869 563.422 844.525C561.146 845.474 560.007 847.37 560.007 850.216C560.007 852.018 560.624 853.488 561.857 854.626C563.185 855.765 564.75 856.334 566.552 856.334C569.113 856.334 571.294 855.195 573.096 852.919C574.899 850.643 575.8 847.181 575.8 842.533C575.8 838.834 574.993 833.285 573.381 825.887C571.863 818.394 571.057 813.557 570.962 811.376C570.298 813.083 569.777 814.363 569.397 815.217L566.979 820.481C566.22 820.671 565.271 820.386 564.133 819.627C562.995 818.869 562.284 818.015 561.999 817.066L565.556 809.526C568.971 802.507 572.527 797.291 576.226 793.876C579.926 790.461 584.241 788.28 589.173 787.331C590.217 787.426 591.497 788.564 593.015 790.746C594.627 792.927 595.623 795.204 596.002 797.575C591.355 799.377 588.225 801.132 586.612 802.839C585 804.452 584.194 806.538 584.194 809.099C584.194 811.091 585.19 816.64 587.181 825.745C589.173 834.756 590.169 841.395 590.169 845.663C590.169 846.801 590.122 847.892 590.027 848.935C597.52 842.391 604.871 832.005 612.079 817.778L612.364 817.066ZM633.067 867.573C625.099 867.573 618.65 864.68 613.718 858.895C608.88 853.109 606.462 845.331 606.462 835.562C606.462 827.025 608.216 818.205 611.726 809.099C615.235 799.899 619.74 791.742 625.242 784.628C630.743 777.515 637.003 771.681 644.022 767.129C651.04 762.576 657.822 760.3 664.367 760.3C669.773 760.3 673.994 762.007 677.029 765.421C680.159 768.741 681.724 773.009 681.724 778.226C681.724 784.865 680.017 791.268 676.602 797.433C673.187 803.503 669.394 806.538 665.22 806.538C661.521 806.538 658.818 804.262 657.111 799.709C660.336 797.053 663.134 793.639 665.505 789.466C667.971 785.292 669.204 781.451 669.204 777.941C669.204 774.242 667.544 772.393 664.224 772.393C660.62 772.393 656.494 774.242 651.847 777.941C647.199 781.546 642.836 786.193 638.758 791.884C634.679 797.48 631.217 804.214 628.372 812.087C625.621 819.864 624.246 827.452 624.246 834.85C624.246 841.49 625.668 846.469 628.514 849.789C631.359 853.014 635.153 854.626 639.896 854.626C645.207 854.626 650.851 852.682 656.826 848.793C662.896 844.904 668.208 840.209 672.761 834.708C677.408 829.207 681.25 823.564 684.285 817.778L684.569 817.066C685.518 817.066 686.514 817.446 687.557 818.205C688.695 818.869 689.359 819.627 689.549 820.481L689.122 821.477C686.182 827.168 682.72 832.669 678.736 837.98C674.752 843.292 670.342 848.224 665.505 852.777C660.762 857.235 655.546 860.839 649.855 863.59C644.164 866.245 638.568 867.573 633.067 867.573ZM698.34 788.754C697.107 788.754 695.969 788.327 694.925 787.474C693.882 786.62 693.123 785.672 692.649 784.628C693.977 782.447 695.352 778.937 696.775 774.1C698.292 769.168 698.956 764.71 698.767 760.726C700.474 761.011 702.086 761.39 703.604 761.865C705.216 762.244 706.924 762.813 708.726 763.572C710.528 764.236 711.95 765.137 712.994 766.275C714.037 767.318 714.559 768.504 714.559 769.832C714.559 773.246 712.614 777.278 708.726 781.925C704.932 786.478 701.47 788.754 698.34 788.754ZM685.962 867.289C682.453 867.289 679.655 865.961 677.568 863.305C675.481 860.649 674.438 857.187 674.438 852.919C674.438 848.556 675.386 843.339 677.283 837.269C679.275 831.199 681.409 824.797 683.686 818.062C686.057 811.233 687.574 805.258 688.238 800.136C692.601 800.326 696.158 801.274 698.909 802.981C701.659 804.689 703.035 806.775 703.035 809.241C703.035 812.561 700.806 819.627 696.348 830.44C691.89 841.158 689.661 848.034 689.661 851.07C689.661 854.2 690.752 855.765 692.933 855.765C696.443 855.765 701.517 851.923 708.157 844.24C714.891 836.463 720.724 827.642 725.656 817.778L725.941 817.066C726.889 817.066 727.885 817.446 728.928 818.205C730.067 818.869 730.73 819.627 730.92 820.481L730.351 821.477C728.644 824.797 726.652 828.353 724.376 832.147C722.194 835.846 719.491 839.877 716.266 844.24C713.136 848.509 709.959 852.303 706.734 855.622C703.509 858.942 700.047 861.74 696.348 864.016C692.649 866.198 689.187 867.289 685.962 867.289ZM778.299 817.066C779.153 817.066 780.101 817.446 781.145 818.205C782.283 818.869 782.947 819.627 783.136 820.481L782.71 821.477C767.534 852.113 753.639 867.431 741.024 867.431C737.514 867.431 734.574 866.198 732.203 863.732C729.926 861.266 728.788 857.899 728.788 853.63C728.788 850.311 729.595 846.422 731.207 841.964C732.914 837.506 734.764 833.57 736.756 830.155C738.747 826.646 740.549 823.326 742.162 820.196C743.869 817.066 744.723 814.98 744.723 813.936C744.723 812.039 742.399 809.241 737.751 805.542C736.329 808.767 734.859 811.992 733.341 815.217L730.922 820.481C730.164 820.671 729.215 820.386 728.077 819.627C726.939 818.869 726.227 818.015 725.943 817.066L727.65 813.652C729.547 809.479 731.207 805.495 732.63 801.701C730.448 799.519 729.263 796.532 729.073 792.738C728.883 788.944 729.215 785.624 730.069 782.779C730.922 779.838 731.918 777.23 733.056 774.954C740.549 776.471 744.296 779.506 744.296 784.059C744.296 787.094 743.063 791.884 740.597 798.429C742.02 799.282 743.917 800.326 746.288 801.559C748.659 802.792 750.603 803.835 752.121 804.689C753.639 805.542 755.204 806.538 756.816 807.676C758.523 808.72 759.756 809.763 760.515 810.806C761.369 811.85 761.796 812.893 761.796 813.936C761.796 815.833 760.515 819.295 757.954 824.322C755.393 829.254 752.832 834.376 750.271 839.688C747.711 844.904 746.43 848.841 746.43 851.496C746.43 853.773 747.236 854.911 748.849 854.911C750.841 854.911 753.307 853.441 756.247 850.5C759.187 847.56 762.08 843.909 764.926 839.545C767.866 835.182 770.379 831.199 772.466 827.595C774.648 823.895 776.45 820.623 777.872 817.778L778.299 817.066ZM786.293 867.431C780.887 867.431 776.666 865.392 773.631 861.313C770.596 857.235 769.078 851.923 769.078 845.379C769.078 838.739 770.596 831.958 773.631 825.034C776.761 818.015 781.076 812.134 786.578 807.392C792.079 802.555 797.865 800.136 803.935 800.136C808.203 800.136 811.712 801.464 814.463 804.12C817.309 806.775 818.731 810.427 818.731 815.075C818.731 819.438 817.498 823.611 815.032 827.595C812.566 831.578 809.578 833.57 806.069 833.57C804.362 833.57 802.844 833.001 801.516 831.863C800.283 830.725 799.382 829.065 798.813 826.883C800.52 825.366 802.085 823.564 803.508 821.477C804.931 819.295 805.642 817.304 805.642 815.501C805.642 813.604 804.789 812.656 803.081 812.656C800.426 812.656 797.627 814.411 794.687 817.92C791.747 821.429 789.328 825.698 787.431 830.725C785.534 835.657 784.586 840.162 784.586 844.24C784.586 847.465 785.25 850.074 786.578 852.065C788 853.962 790.087 854.911 792.838 854.911C796.062 854.911 799.572 853.583 803.366 850.927C807.16 848.272 810.717 844.952 814.036 840.968C817.451 836.985 820.486 833.001 823.142 829.017C825.797 825.034 828.026 821.287 829.829 817.778L830.113 817.066C831.062 817.066 832.057 817.446 833.101 818.205C834.144 818.869 834.808 819.627 835.093 820.481L834.524 821.477C832.627 825.271 830.445 829.112 827.979 833.001C825.608 836.89 822.762 840.968 819.443 845.236C816.123 849.41 812.756 853.109 809.341 856.334C805.927 859.558 802.18 862.214 798.102 864.301C794.023 866.388 790.087 867.431 786.293 867.431ZM834.984 867.289C831.19 867.289 828.107 865.913 825.736 863.163C823.365 860.317 822.179 856.286 822.179 851.07C822.179 849.457 822.274 847.75 822.464 845.948C822.653 844.146 822.985 842.154 823.46 839.972C823.934 837.791 824.361 835.894 824.74 834.281C825.119 832.669 825.688 830.535 826.447 827.879C827.301 825.129 827.917 823.137 828.297 821.904C828.771 820.576 829.482 818.394 830.431 815.359C831.474 812.324 832.138 810.332 832.423 809.384C838.588 789.466 842.382 773.626 843.805 761.865C846.555 761.865 849.069 762.149 851.345 762.718C853.621 763.193 855.661 764.188 857.463 765.706C859.36 767.129 860.308 768.978 860.308 771.255C860.308 774.764 858.364 781.878 854.475 792.596C850.681 803.313 846.84 814.221 842.951 825.318C839.157 836.415 837.26 844.193 837.26 848.651C837.26 850.453 837.592 852.018 838.256 853.346C839.015 854.579 840.105 855.195 841.528 855.195C845.038 855.195 849.78 851.781 855.755 844.952C861.731 838.123 867.517 829.065 873.113 817.778L873.539 817.066C874.488 817.066 875.484 817.446 876.527 818.205C877.571 818.869 878.234 819.627 878.519 820.481L877.95 821.477C876.053 825.366 874.061 829.112 871.974 832.716C869.888 836.321 867.327 840.352 864.292 844.81C861.257 849.173 858.269 852.967 855.329 856.191C852.388 859.321 849.069 861.977 845.37 864.159C841.765 866.245 838.303 867.289 834.984 867.289ZM926.278 817.066C927.132 817.066 928.08 817.446 929.124 818.205C930.262 818.869 930.926 819.627 931.115 820.481L930.689 821.477C928.602 825.555 926.373 829.539 924.002 833.428C921.726 837.222 918.975 841.253 915.75 845.521C912.525 849.694 909.253 853.346 905.933 856.476C902.708 859.606 899.104 862.214 895.121 864.301C891.137 866.293 887.201 867.289 883.312 867.289C877.716 867.289 873.163 865.249 869.654 861.171C866.144 856.998 864.39 851.496 864.39 844.667C864.39 839.925 865.291 834.993 867.093 829.871C868.99 824.654 871.456 819.864 874.491 815.501C877.621 811.044 881.462 807.392 886.015 804.546C890.568 801.606 895.31 800.136 900.242 800.136C904.89 800.136 908.731 801.464 911.766 804.12C914.896 806.681 916.461 810 916.461 814.079C916.461 817.967 915.181 821.667 912.62 825.176C910.154 828.59 906.977 831.483 903.088 833.855C899.199 836.131 895.263 838.028 891.279 839.545C887.296 840.968 883.502 841.917 879.897 842.391C879.803 843.055 879.755 843.719 879.755 844.383C879.755 847.702 880.466 850.263 881.889 852.065C883.407 853.868 885.446 854.769 888.007 854.769C891.991 854.769 896.543 852.682 901.665 848.509C906.882 844.335 911.529 839.498 915.608 833.997C919.781 828.496 923.196 823.089 925.851 817.778L926.278 817.066ZM899.246 812.087C896.022 812.087 892.702 814.316 889.287 818.774C885.968 823.137 883.407 828.164 881.605 833.855C887.675 832.242 892.749 829.681 896.828 826.172C901.001 822.662 903.088 819.295 903.088 816.071C903.088 814.932 902.756 813.984 902.092 813.225C901.428 812.466 900.479 812.087 899.246 812.087Z" fill="white"/>
<path d="M135.978 994.393C134.938 994.133 134.132 993.483 133.56 992.443C132.988 991.351 132.702 990.259 132.702 989.167C132.702 987.711 132.858 986.411 133.17 985.267C133.534 984.123 133.95 982.823 134.418 981.367C134.886 980.015 135.38 978.611 135.9 977.155C136.42 975.647 136.914 974.269 137.382 973.021C137.902 971.773 138.292 970.837 138.552 970.213L137.226 961.477C136.758 958.409 136.056 956.173 135.12 954.769C134.184 953.313 133.586 952.481 133.326 952.273C133.638 952.169 134.054 952.065 134.574 951.961C135.146 951.805 135.614 951.727 135.978 951.727C137.278 951.727 138.266 952.143 138.942 952.975C139.67 953.807 140.19 954.873 140.502 956.173C140.866 957.421 141.126 958.721 141.282 960.073L142.53 969.199C144.61 967.119 146.638 965.013 148.614 962.881C150.642 960.749 152.462 958.721 154.074 956.797C155.738 954.821 157.064 953.079 158.052 951.571C159.3 951.571 159.924 952.195 159.924 953.443C159.924 954.951 159.404 956.407 158.364 957.811C157.324 959.215 156.206 960.515 155.01 961.711C153.866 962.803 152.566 963.973 151.11 965.221C149.654 966.469 148.198 967.691 146.742 968.887C145.338 970.083 144.09 971.175 142.998 972.163C142.27 973.827 141.464 975.673 140.58 977.701C139.748 979.677 138.968 981.653 138.24 983.629C137.564 985.553 137.018 987.243 136.602 988.699C136.082 990.571 135.822 992.027 135.822 993.067C135.822 993.327 135.822 993.561 135.822 993.769C135.874 993.977 135.926 994.185 135.978 994.393ZM154.28 994.081C152.356 994.081 150.9 993.457 149.912 992.209C148.976 990.961 148.508 989.375 148.508 987.451C148.508 985.267 149.08 982.875 150.224 980.275C151.264 977.935 152.59 975.803 154.202 973.879C155.866 971.955 157.66 970.421 159.584 969.277C161.508 968.081 163.354 967.483 165.122 967.483C167.254 967.483 168.814 968.133 169.802 969.433C170.79 970.733 171.284 972.371 171.284 974.347C171.284 976.479 170.738 978.767 169.646 981.211C169.074 982.459 168.242 983.811 167.15 985.267C166.058 986.723 164.81 988.127 163.406 989.479C162.002 990.831 160.494 991.949 158.882 992.833C157.322 993.665 155.788 994.081 154.28 994.081ZM155.762 992.521C156.854 992.521 157.946 992.157 159.038 991.429C160.13 990.649 161.17 989.713 162.158 988.621C163.146 987.529 164.004 986.437 164.732 985.345C165.512 984.201 166.084 983.239 166.448 982.459C167.332 980.795 167.982 979.209 168.398 977.701C168.814 976.141 169.022 974.789 169.022 973.645C169.022 971.149 168.086 969.901 166.214 969.901C165.07 969.901 163.848 970.369 162.548 971.305C161.3 972.189 160.078 973.385 158.882 974.893C157.686 976.401 156.646 978.091 155.762 979.963C153.89 983.707 152.954 986.749 152.954 989.089C152.954 990.961 153.552 992.053 154.748 992.365C154.904 992.417 155.06 992.469 155.216 992.521C155.372 992.521 155.554 992.521 155.762 992.521ZM187.571 993.769C185.803 993.769 184.919 992.677 184.919 990.493C184.919 989.453 185.101 988.257 185.465 986.905C185.829 985.501 186.323 983.993 186.947 982.381C185.855 984.097 184.633 985.813 183.281 987.529C181.981 989.245 180.629 990.675 179.225 991.819C177.873 992.911 176.547 993.457 175.247 993.457C173.791 993.457 172.803 992.989 172.283 992.053C171.815 991.065 171.581 989.999 171.581 988.855C171.581 987.867 171.685 986.931 171.893 986.047C172.101 985.111 172.309 984.435 172.517 984.019C173.297 982.043 174.259 979.859 175.403 977.467C176.599 975.075 177.665 972.995 178.601 971.227C179.121 970.343 179.953 969.589 181.097 968.965C182.293 968.341 183.255 968.029 183.983 968.029C184.763 968.029 185.153 968.289 185.153 968.809C185.153 969.225 184.893 969.849 184.373 970.681C183.905 971.357 183.255 972.423 182.423 973.879C181.591 975.283 180.681 976.869 179.693 978.637C178.757 980.405 177.847 982.147 176.963 983.863C175.819 986.047 175.247 987.945 175.247 989.557C175.247 990.857 175.637 991.507 176.417 991.507C176.833 991.507 177.379 991.273 178.055 990.805C178.731 990.337 179.537 989.583 180.473 988.543C180.889 988.127 181.513 987.295 182.345 986.047C183.229 984.799 184.217 983.395 185.309 981.835C186.401 980.223 187.467 978.663 188.507 977.155C189.547 975.595 190.405 974.321 191.081 973.333C192.329 970.941 193.655 969.329 195.059 968.497C196.463 967.665 198.127 967.249 200.051 967.249C199.531 967.509 198.907 968.185 198.179 969.277C197.451 970.369 196.697 971.487 195.917 972.631C195.397 973.411 194.825 974.425 194.201 975.673C193.577 976.921 192.953 978.247 192.329 979.651C191.705 981.003 191.159 982.277 190.691 983.473C190.275 984.669 189.989 985.605 189.833 986.281C189.573 987.425 189.443 988.335 189.443 989.011C189.443 990.259 189.755 990.883 190.379 990.883C190.587 990.883 190.847 990.805 191.159 990.649C192.303 990.077 193.447 989.245 194.591 988.153C195.735 987.061 196.827 985.943 197.867 984.799C198.387 984.227 198.881 983.681 199.349 983.161C199.817 982.641 200.259 982.095 200.675 981.523C200.831 981.367 200.961 981.289 201.065 981.289C201.377 981.289 201.533 981.497 201.533 981.913C201.533 982.225 201.429 982.485 201.221 982.693C200.129 984.045 198.985 985.423 197.789 986.827C196.645 988.127 195.449 989.401 194.201 990.649C193.161 991.637 192.017 992.417 190.769 992.989C189.521 993.509 188.455 993.769 187.571 993.769ZM210.322 993.925C209.334 993.925 208.502 993.587 207.826 992.911C207.15 992.235 206.812 991.273 206.812 990.025C206.812 989.453 206.864 988.933 206.968 988.465C207.072 987.945 207.202 987.503 207.358 987.139C207.618 986.359 208.112 985.345 208.84 984.097C209.568 982.849 210.374 981.549 211.258 980.197C212.142 978.793 212.896 977.545 213.52 976.453C214.3 975.101 214.69 973.931 214.69 972.943C214.69 971.851 214.222 970.993 213.286 970.369C212.922 970.109 212.558 969.875 212.194 969.667C211.83 969.407 211.518 969.173 211.258 968.965L209.074 972.475C207.826 974.191 206.526 975.959 205.174 977.779C203.822 979.599 202.522 981.289 201.274 982.849C200.026 984.357 198.96 985.631 198.076 986.671C197.92 986.827 197.764 986.905 197.608 986.905C197.348 986.905 197.14 986.775 196.984 986.515C196.828 986.255 196.854 986.021 197.062 985.813C199.09 983.525 201.04 981.185 202.912 978.793C204.784 976.401 206.526 973.853 208.138 971.149L210.01 967.951C209.802 967.795 209.464 967.457 208.996 966.937C208.58 966.417 208.164 965.845 207.748 965.221C207.384 964.545 207.202 963.973 207.202 963.505C207.202 963.089 207.332 962.777 207.592 962.569C207.904 962.309 208.424 962.179 209.152 962.179C210.92 962.179 211.778 964.077 211.726 967.873C212.454 968.445 213.26 968.887 214.144 969.199C215.028 969.511 215.86 969.823 216.64 970.135C217.472 970.395 218.148 970.785 218.668 971.305C219.188 971.825 219.448 972.605 219.448 973.645C219.448 974.529 219.188 975.569 218.668 976.765C218.2 977.909 217.628 978.923 216.952 979.807C216.38 980.587 215.704 981.523 214.924 982.615C214.196 983.707 213.494 984.799 212.818 985.891C212.142 986.983 211.648 987.971 211.336 988.855C211.076 989.531 210.946 990.025 210.946 990.337C210.946 991.013 211.258 991.351 211.882 991.351C212.454 991.351 213.156 991.117 213.988 990.649C215.08 990.077 216.198 989.271 217.342 988.231C218.538 987.139 219.63 986.021 220.618 984.877C221.19 984.305 221.71 983.759 222.178 983.239C222.646 982.667 223.088 982.095 223.504 981.523C223.66 981.367 223.79 981.289 223.894 981.289C224.206 981.289 224.362 981.523 224.362 981.991C224.362 982.251 224.258 982.485 224.05 982.693C222.958 983.993 221.84 985.371 220.696 986.827C219.552 988.231 218.33 989.505 217.03 990.649C216.25 991.273 215.236 991.975 213.988 992.755C212.74 993.535 211.518 993.925 210.322 993.925ZM442.798 994.393C441.758 994.133 440.952 993.483 440.38 992.443C439.808 991.351 439.522 990.259 439.522 989.167C439.522 987.711 439.678 986.411 439.99 985.267C440.354 984.123 440.77 982.823 441.238 981.367C441.706 980.015 442.2 978.611 442.72 977.155C443.24 975.647 443.734 974.269 444.202 973.021C444.722 971.773 445.112 970.837 445.372 970.213L444.046 961.477C443.578 958.409 442.876 956.173 441.94 954.769C441.004 953.313 440.406 952.481 440.146 952.273C440.458 952.169 440.874 952.065 441.394 951.961C441.966 951.805 442.434 951.727 442.798 951.727C444.098 951.727 445.086 952.143 445.762 952.975C446.49 953.807 447.01 954.873 447.322 956.173C447.686 957.421 447.946 958.721 448.102 960.073L449.35 969.199C451.43 967.119 453.458 965.013 455.434 962.881C457.462 960.749 459.282 958.721 460.894 956.797C462.558 954.821 463.884 953.079 464.872 951.571C466.12 951.571 466.744 952.195 466.744 953.443C466.744 954.951 466.224 956.407 465.184 957.811C464.144 959.215 463.026 960.515 461.83 961.711C460.686 962.803 459.386 963.973 457.93 965.221C456.474 966.469 455.018 967.691 453.562 968.887C452.158 970.083 450.91 971.175 449.818 972.163C449.09 973.827 448.284 975.673 447.4 977.701C446.568 979.677 445.788 981.653 445.06 983.629C444.384 985.553 443.838 987.243 443.422 988.699C442.902 990.571 442.642 992.027 442.642 993.067C442.642 993.327 442.642 993.561 442.642 993.769C442.694 993.977 442.746 994.185 442.798 994.393ZM461.1 994.081C459.176 994.081 457.72 993.457 456.732 992.209C455.796 990.961 455.328 989.375 455.328 987.451C455.328 985.267 455.9 982.875 457.044 980.275C458.084 977.935 459.41 975.803 461.022 973.879C462.686 971.955 464.48 970.421 466.404 969.277C468.328 968.081 470.174 967.483 471.942 967.483C474.074 967.483 475.634 968.133 476.622 969.433C477.61 970.733 478.104 972.371 478.104 974.347C478.104 976.479 477.558 978.767 476.466 981.211C475.894 982.459 475.062 983.811 473.97 985.267C472.878 986.723 471.63 988.127 470.226 989.479C468.822 990.831 467.314 991.949 465.702 992.833C464.142 993.665 462.608 994.081 461.1 994.081ZM462.582 992.521C463.674 992.521 464.766 992.157 465.858 991.429C466.95 990.649 467.99 989.713 468.978 988.621C469.966 987.529 470.824 986.437 471.552 985.345C472.332 984.201 472.904 983.239 473.268 982.459C474.152 980.795 474.802 979.209 475.218 977.701C475.634 976.141 475.842 974.789 475.842 973.645C475.842 971.149 474.906 969.901 473.034 969.901C471.89 969.901 470.668 970.369 469.368 971.305C468.12 972.189 466.898 973.385 465.702 974.893C464.506 976.401 463.466 978.091 462.582 979.963C460.71 983.707 459.774 986.749 459.774 989.089C459.774 990.961 460.372 992.053 461.568 992.365C461.724 992.417 461.88 992.469 462.036 992.521C462.192 992.521 462.374 992.521 462.582 992.521ZM494.391 993.769C492.623 993.769 491.739 992.677 491.739 990.493C491.739 989.453 491.921 988.257 492.285 986.905C492.649 985.501 493.143 983.993 493.767 982.381C492.675 984.097 491.453 985.813 490.101 987.529C488.801 989.245 487.449 990.675 486.045 991.819C484.693 992.911 483.367 993.457 482.067 993.457C480.611 993.457 479.623 992.989 479.103 992.053C478.635 991.065 478.401 989.999 478.401 988.855C478.401 987.867 478.505 986.931 478.713 986.047C478.921 985.111 479.129 984.435 479.337 984.019C480.117 982.043 481.079 979.859 482.223 977.467C483.419 975.075 484.485 972.995 485.421 971.227C485.941 970.343 486.773 969.589 487.917 968.965C489.113 968.341 490.075 968.029 490.803 968.029C491.583 968.029 491.973 968.289 491.973 968.809C491.973 969.225 491.713 969.849 491.193 970.681C490.725 971.357 490.075 972.423 489.243 973.879C488.411 975.283 487.501 976.869 486.513 978.637C485.577 980.405 484.667 982.147 483.783 983.863C482.639 986.047 482.067 987.945 482.067 989.557C482.067 990.857 482.457 991.507 483.237 991.507C483.653 991.507 484.199 991.273 484.875 990.805C485.551 990.337 486.357 989.583 487.293 988.543C487.709 988.127 488.333 987.295 489.165 986.047C490.049 984.799 491.037 983.395 492.129 981.835C493.221 980.223 494.287 978.663 495.327 977.155C496.367 975.595 497.225 974.321 497.901 973.333C499.149 970.941 500.475 969.329 501.879 968.497C503.283 967.665 504.947 967.249 506.871 967.249C506.351 967.509 505.727 968.185 504.999 969.277C504.271 970.369 503.517 971.487 502.737 972.631C502.217 973.411 501.645 974.425 501.021 975.673C500.397 976.921 499.773 978.247 499.149 979.651C498.525 981.003 497.979 982.277 497.511 983.473C497.095 984.669 496.809 985.605 496.653 986.281C496.393 987.425 496.263 988.335 496.263 989.011C496.263 990.259 496.575 990.883 497.199 990.883C497.407 990.883 497.667 990.805 497.979 990.649C499.123 990.077 500.267 989.245 501.411 988.153C502.555 987.061 503.647 985.943 504.687 984.799C505.207 984.227 505.701 983.681 506.169 983.161C506.637 982.641 507.079 982.095 507.495 981.523C507.651 981.367 507.781 981.289 507.885 981.289C508.197 981.289 508.353 981.497 508.353 981.913C508.353 982.225 508.249 982.485 508.041 982.693C506.949 984.045 505.805 985.423 504.609 986.827C503.465 988.127 502.269 989.401 501.021 990.649C499.981 991.637 498.837 992.417 497.589 992.989C496.341 993.509 495.275 993.769 494.391 993.769ZM517.142 993.925C516.154 993.925 515.322 993.587 514.646 992.911C513.97 992.235 513.632 991.273 513.632 990.025C513.632 989.453 513.684 988.933 513.788 988.465C513.892 987.945 514.022 987.503 514.178 987.139C514.438 986.359 514.932 985.345 515.66 984.097C516.388 982.849 517.194 981.549 518.078 980.197C518.962 978.793 519.716 977.545 520.34 976.453C521.12 975.101 521.51 973.931 521.51 972.943C521.51 971.851 521.042 970.993 520.106 970.369C519.742 970.109 519.378 969.875 519.014 969.667C518.65 969.407 518.338 969.173 518.078 968.965L515.894 972.475C514.646 974.191 513.346 975.959 511.994 977.779C510.642 979.599 509.342 981.289 508.094 982.849C506.846 984.357 505.78 985.631 504.896 986.671C504.74 986.827 504.584 986.905 504.428 986.905C504.168 986.905 503.96 986.775 503.804 986.515C503.648 986.255 503.674 986.021 503.882 985.813C505.91 983.525 507.86 981.185 509.732 978.793C511.604 976.401 513.346 973.853 514.958 971.149L516.83 967.951C516.622 967.795 516.284 967.457 515.816 966.937C515.4 966.417 514.984 965.845 514.568 965.221C514.204 964.545 514.022 963.973 514.022 963.505C514.022 963.089 514.152 962.777 514.412 962.569C514.724 962.309 515.244 962.179 515.972 962.179C517.74 962.179 518.598 964.077 518.546 967.873C519.274 968.445 520.08 968.887 520.964 969.199C521.848 969.511 522.68 969.823 523.46 970.135C524.292 970.395 524.968 970.785 525.488 971.305C526.008 971.825 526.268 972.605 526.268 973.645C526.268 974.529 526.008 975.569 525.488 976.765C525.02 977.909 524.448 978.923 523.772 979.807C523.2 980.587 522.524 981.523 521.744 982.615C521.016 983.707 520.314 984.799 519.638 985.891C518.962 986.983 518.468 987.971 518.156 988.855C517.896 989.531 517.766 990.025 517.766 990.337C517.766 991.013 518.078 991.351 518.702 991.351C519.274 991.351 519.976 991.117 520.808 990.649C521.9 990.077 523.018 989.271 524.162 988.231C525.358 987.139 526.45 986.021 527.438 984.877C528.01 984.305 528.53 983.759 528.998 983.239C529.466 982.667 529.908 982.095 530.324 981.523C530.48 981.367 530.61 981.289 530.714 981.289C531.026 981.289 531.182 981.523 531.182 981.991C531.182 982.251 531.078 982.485 530.87 982.693C529.778 983.993 528.66 985.371 527.516 986.827C526.372 988.231 525.15 989.505 523.85 990.649C523.07 991.273 522.056 991.975 520.808 992.755C519.56 993.535 518.338 993.925 517.142 993.925ZM743.83 994.393C742.79 994.133 741.984 993.483 741.412 992.443C740.84 991.351 740.554 990.259 740.554 989.167C740.554 987.711 740.71 986.411 741.022 985.267C741.386 984.123 741.802 982.823 742.27 981.367C742.738 980.015 743.232 978.611 743.752 977.155C744.272 975.647 744.766 974.269 745.234 973.021C745.754 971.773 746.144 970.837 746.404 970.213L745.078 961.477C744.61 958.409 743.908 956.173 742.972 954.769C742.036 953.313 741.438 952.481 741.178 952.273C741.49 952.169 741.906 952.065 742.426 951.961C742.998 951.805 743.466 951.727 743.83 951.727C745.13 951.727 746.118 952.143 746.794 952.975C747.522 953.807 748.042 954.873 748.354 956.173C748.718 957.421 748.978 958.721 749.134 960.073L750.382 969.199C752.462 967.119 754.49 965.013 756.466 962.881C758.494 960.749 760.314 958.721 761.926 956.797C763.59 954.821 764.916 953.079 765.904 951.571C767.152 951.571 767.776 952.195 767.776 953.443C767.776 954.951 767.256 956.407 766.216 957.811C765.176 959.215 764.058 960.515 762.862 961.711C761.718 962.803 760.418 963.973 758.962 965.221C757.506 966.469 756.05 967.691 754.594 968.887C753.19 970.083 751.942 971.175 750.85 972.163C750.122 973.827 749.316 975.673 748.432 977.701C747.6 979.677 746.82 981.653 746.092 983.629C745.416 985.553 744.87 987.243 744.454 988.699C743.934 990.571 743.674 992.027 743.674 993.067C743.674 993.327 743.674 993.561 743.674 993.769C743.726 993.977 743.778 994.185 743.83 994.393ZM762.132 994.081C760.208 994.081 758.752 993.457 757.764 992.209C756.828 990.961 756.36 989.375 756.36 987.451C756.36 985.267 756.932 982.875 758.076 980.275C759.116 977.935 760.442 975.803 762.054 973.879C763.718 971.955 765.512 970.421 767.436 969.277C769.36 968.081 771.206 967.483 772.974 967.483C775.106 967.483 776.666 968.133 777.654 969.433C778.642 970.733 779.136 972.371 779.136 974.347C779.136 976.479 778.59 978.767 777.498 981.211C776.926 982.459 776.094 983.811 775.002 985.267C773.91 986.723 772.662 988.127 771.258 989.479C769.854 990.831 768.346 991.949 766.734 992.833C765.174 993.665 763.64 994.081 762.132 994.081ZM763.614 992.521C764.706 992.521 765.798 992.157 766.89 991.429C767.982 990.649 769.022 989.713 770.01 988.621C770.998 987.529 771.856 986.437 772.584 985.345C773.364 984.201 773.936 983.239 774.3 982.459C775.184 980.795 775.834 979.209 776.25 977.701C776.666 976.141 776.874 974.789 776.874 973.645C776.874 971.149 775.938 969.901 774.066 969.901C772.922 969.901 771.7 970.369 770.4 971.305C769.152 972.189 767.93 973.385 766.734 974.893C765.538 976.401 764.498 978.091 763.614 979.963C761.742 983.707 760.806 986.749 760.806 989.089C760.806 990.961 761.404 992.053 762.6 992.365C762.756 992.417 762.912 992.469 763.068 992.521C763.224 992.521 763.406 992.521 763.614 992.521ZM795.422 993.769C793.654 993.769 792.77 992.677 792.77 990.493C792.77 989.453 792.952 988.257 793.316 986.905C793.68 985.501 794.174 983.993 794.798 982.381C793.706 984.097 792.484 985.813 791.132 987.529C789.832 989.245 788.48 990.675 787.076 991.819C785.724 992.911 784.398 993.457 783.098 993.457C781.642 993.457 780.654 992.989 780.134 992.053C779.666 991.065 779.432 989.999 779.432 988.855C779.432 987.867 779.536 986.931 779.744 986.047C779.952 985.111 780.16 984.435 780.368 984.019C781.148 982.043 782.11 979.859 783.254 977.467C784.45 975.075 785.516 972.995 786.452 971.227C786.972 970.343 787.804 969.589 788.948 968.965C790.144 968.341 791.106 968.029 791.834 968.029C792.614 968.029 793.004 968.289 793.004 968.809C793.004 969.225 792.744 969.849 792.224 970.681C791.756 971.357 791.106 972.423 790.274 973.879C789.442 975.283 788.532 976.869 787.544 978.637C786.608 980.405 785.698 982.147 784.814 983.863C783.67 986.047 783.098 987.945 783.098 989.557C783.098 990.857 783.488 991.507 784.268 991.507C784.684 991.507 785.23 991.273 785.906 990.805C786.582 990.337 787.388 989.583 788.324 988.543C788.74 988.127 789.364 987.295 790.196 986.047C791.08 984.799 792.068 983.395 793.16 981.835C794.252 980.223 795.318 978.663 796.358 977.155C797.398 975.595 798.256 974.321 798.932 973.333C800.18 970.941 801.506 969.329 802.91 968.497C804.314 967.665 805.978 967.249 807.902 967.249C807.382 967.509 806.758 968.185 806.03 969.277C805.302 970.369 804.548 971.487 803.768 972.631C803.248 973.411 802.676 974.425 802.052 975.673C801.428 976.921 800.804 978.247 800.18 979.651C799.556 981.003 799.01 982.277 798.542 983.473C798.126 984.669 797.84 985.605 797.684 986.281C797.424 987.425 797.294 988.335 797.294 989.011C797.294 990.259 797.606 990.883 798.23 990.883C798.438 990.883 798.698 990.805 799.01 990.649C800.154 990.077 801.298 989.245 802.442 988.153C803.586 987.061 804.678 985.943 805.718 984.799C806.238 984.227 806.732 983.681 807.2 983.161C807.668 982.641 808.11 982.095 808.526 981.523C808.682 981.367 808.812 981.289 808.916 981.289C809.228 981.289 809.384 981.497 809.384 981.913C809.384 982.225 809.28 982.485 809.072 982.693C807.98 984.045 806.836 985.423 805.64 986.827C804.496 988.127 803.3 989.401 802.052 990.649C801.012 991.637 799.868 992.417 798.62 992.989C797.372 993.509 796.306 993.769 795.422 993.769ZM818.173 993.925C817.185 993.925 816.353 993.587 815.677 992.911C815.001 992.235 814.663 991.273 814.663 990.025C814.663 989.453 814.715 988.933 814.819 988.465C814.923 987.945 815.053 987.503 815.209 987.139C815.469 986.359 815.963 985.345 816.691 984.097C817.419 982.849 818.225 981.549 819.109 980.197C819.993 978.793 820.747 977.545 821.371 976.453C822.151 975.101 822.541 973.931 822.541 972.943C822.541 971.851 822.073 970.993 821.137 970.369C820.773 970.109 820.409 969.875 820.045 969.667C819.681 969.407 819.369 969.173 819.109 968.965L816.925 972.475C815.677 974.191 814.377 975.959 813.025 977.779C811.673 979.599 810.373 981.289 809.125 982.849C807.877 984.357 806.811 985.631 805.927 986.671C805.771 986.827 805.615 986.905 805.459 986.905C805.199 986.905 804.991 986.775 804.835 986.515C804.679 986.255 804.705 986.021 804.913 985.813C806.941 983.525 808.891 981.185 810.763 978.793C812.635 976.401 814.377 973.853 815.989 971.149L817.861 967.951C817.653 967.795 817.315 967.457 816.847 966.937C816.431 966.417 816.015 965.845 815.599 965.221C815.235 964.545 815.053 963.973 815.053 963.505C815.053 963.089 815.183 962.777 815.443 962.569C815.755 962.309 816.275 962.179 817.003 962.179C818.771 962.179 819.629 964.077 819.577 967.873C820.305 968.445 821.111 968.887 821.995 969.199C822.879 969.511 823.711 969.823 824.491 970.135C825.323 970.395 825.999 970.785 826.519 971.305C827.039 971.825 827.299 972.605 827.299 973.645C827.299 974.529 827.039 975.569 826.519 976.765C826.051 977.909 825.479 978.923 824.803 979.807C824.231 980.587 823.555 981.523 822.775 982.615C822.047 983.707 821.345 984.799 820.669 985.891C819.993 986.983 819.499 987.971 819.187 988.855C818.927 989.531 818.797 990.025 818.797 990.337C818.797 991.013 819.109 991.351 819.733 991.351C820.305 991.351 821.007 991.117 821.839 990.649C822.931 990.077 824.049 989.271 825.193 988.231C826.389 987.139 827.481 986.021 828.469 984.877C829.041 984.305 829.561 983.759 830.029 983.239C830.497 982.667 830.939 982.095 831.355 981.523C831.511 981.367 831.641 981.289 831.745 981.289C832.057 981.289 832.213 981.523 832.213 981.991C832.213 982.251 832.109 982.485 831.901 982.693C830.809 983.993 829.691 985.371 828.547 986.827C827.403 988.231 826.181 989.505 824.881 990.649C824.101 991.273 823.087 991.975 821.839 992.755C820.591 993.535 819.369 993.925 818.173 993.925Z" fill="white" fill-opacity="0.87"/>
<path d="M250.251 995.095C247.391 995.095 245.077 994.575 243.309 993.535C241.593 992.495 240.345 991.091 239.565 989.323C238.785 987.503 238.395 985.475 238.395 983.239C238.395 980.483 238.915 977.623 239.955 974.659C240.995 971.643 242.425 968.757 244.245 966.001C246.065 963.245 248.145 960.775 250.485 958.591C252.877 956.355 255.425 954.587 258.129 953.287C260.885 951.987 263.667 951.337 266.475 951.337C269.595 951.337 271.883 952.039 273.339 953.443C274.795 954.847 275.523 956.537 275.523 958.513C275.523 959.449 275.367 960.437 275.055 961.477C274.691 962.621 274.249 963.817 273.729 965.065C273.209 966.261 272.741 967.353 272.325 968.341C271.909 969.277 271.623 969.953 271.467 970.369C270.635 970.369 270.063 970.135 269.751 969.667C269.439 969.199 269.283 968.575 269.283 967.795C269.283 966.911 269.465 965.871 269.829 964.675C270.193 963.479 270.609 962.309 271.077 961.165C271.597 959.969 271.857 958.773 271.857 957.577C271.857 956.381 271.519 955.367 270.843 954.535C270.167 953.703 269.075 953.287 267.567 953.287C264.811 953.287 262.211 954.015 259.767 955.471C257.323 956.875 255.087 958.773 253.059 961.165C251.083 963.505 249.367 966.079 247.911 968.887C246.455 971.695 245.311 974.503 244.479 977.311C243.699 980.067 243.309 982.563 243.309 984.799C243.309 987.295 243.829 989.349 244.869 990.961C245.961 992.521 247.937 993.301 250.797 993.301C254.229 993.301 257.427 991.949 260.391 989.245C263.355 986.489 265.669 982.979 267.333 978.715C267.957 979.079 268.269 979.859 268.269 981.055C268.269 983.083 267.671 984.955 266.475 986.671C265.279 988.387 263.719 989.869 261.795 991.117C259.923 992.365 257.947 993.327 255.867 994.003C253.839 994.731 251.967 995.095 250.251 995.095ZM287.501 962.725C286.929 962.725 286.461 962.543 286.097 962.179C285.733 961.763 285.551 961.295 285.551 960.775C285.551 959.995 285.811 959.345 286.331 958.825C286.903 958.253 287.527 957.967 288.203 957.967C288.879 957.967 289.399 958.201 289.763 958.669C290.179 959.085 290.335 959.631 290.231 960.307C290.075 960.983 289.737 961.555 289.217 962.023C288.749 962.491 288.177 962.725 287.501 962.725ZM276.815 993.535C275.671 993.535 274.683 993.171 273.851 992.443C273.019 991.663 272.603 990.363 272.603 988.543C272.603 987.763 272.681 986.905 272.837 985.969C273.305 983.525 274.059 981.185 275.099 978.949C276.191 976.713 277.231 974.789 278.219 973.177C279.259 971.513 279.935 970.421 280.247 969.901C280.507 969.381 281.183 968.887 282.275 968.419C283.367 967.899 284.277 967.639 285.005 967.639C285.629 967.639 285.941 967.847 285.941 968.263C285.941 968.627 285.811 968.965 285.551 969.277C284.771 970.525 283.861 971.955 282.821 973.567C281.833 975.127 280.871 976.791 279.935 978.559C278.999 980.327 278.219 982.069 277.595 983.785C276.971 985.501 276.659 987.087 276.659 988.543C276.659 989.323 276.789 989.947 277.049 990.415C277.361 990.883 277.907 991.117 278.687 991.117C279.519 991.117 280.481 990.727 281.573 989.947C282.665 989.115 283.705 988.205 284.693 987.217C285.733 986.177 286.487 985.371 286.955 984.799C287.475 984.227 287.969 983.681 288.437 983.161C288.957 982.641 289.425 982.095 289.841 981.523C289.997 981.367 290.127 981.289 290.231 981.289C290.543 981.289 290.699 981.523 290.699 981.991C290.699 982.251 290.595 982.485 290.387 982.693C289.815 983.369 289.243 984.071 288.671 984.799C288.099 985.475 287.501 986.151 286.877 986.827C286.045 987.815 285.109 988.829 284.069 989.869C283.029 990.909 281.911 991.793 280.715 992.521C279.519 993.197 278.219 993.535 276.815 993.535ZM299.367 993.925C298.379 993.925 297.547 993.587 296.871 992.911C296.195 992.235 295.857 991.273 295.857 990.025C295.857 989.453 295.909 988.933 296.013 988.465C296.117 987.945 296.247 987.503 296.403 987.139C296.663 986.359 297.157 985.345 297.885 984.097C298.613 982.849 299.419 981.549 300.303 980.197C301.187 978.793 301.941 977.545 302.565 976.453C303.345 975.101 303.735 973.931 303.735 972.943C303.735 971.851 303.267 970.993 302.331 970.369C301.967 970.109 301.603 969.875 301.239 969.667C300.875 969.407 300.563 969.173 300.303 968.965L298.119 972.475C296.871 974.191 295.571 975.959 294.219 977.779C292.867 979.599 291.567 981.289 290.319 982.849C289.071 984.357 288.005 985.631 287.121 986.671C286.965 986.827 286.809 986.905 286.653 986.905C286.393 986.905 286.185 986.775 286.029 986.515C285.873 986.255 285.899 986.021 286.107 985.813C288.135 983.525 290.085 981.185 291.957 978.793C293.829 976.401 295.571 973.853 297.183 971.149L299.055 967.951C298.847 967.795 298.509 967.457 298.041 966.937C297.625 966.417 297.209 965.845 296.793 965.221C296.429 964.545 296.247 963.973 296.247 963.505C296.247 963.089 296.377 962.777 296.637 962.569C296.949 962.309 297.469 962.179 298.197 962.179C299.965 962.179 300.823 964.077 300.771 967.873C301.499 968.445 302.305 968.887 303.189 969.199C304.073 969.511 304.905 969.823 305.685 970.135C306.517 970.395 307.193 970.785 307.713 971.305C308.233 971.825 308.493 972.605 308.493 973.645C308.493 974.529 308.233 975.569 307.713 976.765C307.245 977.909 306.673 978.923 305.997 979.807C305.425 980.587 304.749 981.523 303.969 982.615C303.241 983.707 302.539 984.799 301.863 985.891C301.187 986.983 300.693 987.971 300.381 988.855C300.121 989.531 299.991 990.025 299.991 990.337C299.991 991.013 300.303 991.351 300.927 991.351C301.499 991.351 302.201 991.117 303.033 990.649C304.125 990.077 305.243 989.271 306.387 988.231C307.583 987.139 308.675 986.021 309.663 984.877C310.235 984.305 310.755 983.759 311.223 983.239C311.691 982.667 312.133 982.095 312.549 981.523C312.705 981.367 312.835 981.289 312.939 981.289C313.251 981.289 313.407 981.523 313.407 981.991C313.407 982.251 313.303 982.485 313.095 982.693C312.003 983.993 310.885 985.371 309.741 986.827C308.597 988.231 307.375 989.505 306.075 990.649C305.295 991.273 304.281 991.975 303.033 992.755C301.785 993.535 300.563 993.925 299.367 993.925ZM317.852 994.705C315.824 994.705 314.186 994.185 312.938 993.145C311.69 992.105 311.066 990.467 311.066 988.231C311.066 986.671 311.3 985.059 311.768 983.395C312.288 981.679 312.808 980.327 313.328 979.339C314.42 977.155 315.746 975.153 317.306 973.333C318.866 971.513 320.504 970.057 322.22 968.965C323.988 967.821 325.626 967.249 327.134 967.249C328.642 967.249 329.812 967.769 330.644 968.809C331.476 969.797 331.892 970.889 331.892 972.085C331.892 973.125 331.606 974.009 331.034 974.737C330.306 975.725 329.682 976.427 329.162 976.843C328.642 977.259 328.252 977.467 327.992 977.467C327.732 977.467 327.602 977.285 327.602 976.921C327.602 976.609 327.732 976.115 327.992 975.439C328.096 975.127 328.304 974.581 328.616 973.801C328.928 973.021 329.214 972.241 329.474 971.461C329.734 970.681 329.838 970.161 329.786 969.901C329.006 969.745 327.888 970.187 326.432 971.227C325.028 972.215 323.572 973.541 322.064 975.205C320.556 976.817 319.308 978.533 318.32 980.353C318.112 980.769 317.748 981.549 317.228 982.693C316.708 983.837 316.24 985.085 315.824 986.437C315.408 987.737 315.2 988.959 315.2 990.103C315.2 990.987 315.408 991.741 315.824 992.365C316.24 992.937 316.942 993.223 317.93 993.223C318.762 993.223 319.75 993.015 320.894 992.599C322.87 991.975 324.69 990.935 326.354 989.479C328.07 988.023 329.656 986.489 331.112 984.877C331.632 984.305 332.126 983.759 332.594 983.239C333.062 982.719 333.504 982.199 333.92 981.679C334.024 981.575 334.102 981.497 334.154 981.445C334.258 981.341 334.336 981.289 334.388 981.289C334.648 981.289 334.778 981.497 334.778 981.913C334.778 982.277 334.674 982.589 334.466 982.849C333.946 983.525 333.4 984.201 332.828 984.877C332.256 985.553 331.684 986.229 331.112 986.905C329.396 988.829 327.446 990.623 325.262 992.287C323.13 993.899 320.66 994.705 317.852 994.705ZM335.667 993.769C334.679 993.769 333.847 993.457 333.171 992.833C332.495 992.157 332.157 991.013 332.157 989.401C332.157 989.037 332.183 988.647 332.235 988.231C332.287 987.763 332.365 987.269 332.469 986.749C332.729 985.345 333.275 983.551 334.107 981.367C334.939 979.183 335.927 976.869 337.071 974.425C338.215 971.929 339.385 969.537 340.581 967.249C341.777 964.909 342.869 962.907 343.857 961.243C345.781 958.071 347.575 955.627 349.239 953.911C350.903 952.195 352.385 951.025 353.685 950.401C354.985 949.777 356.077 949.491 356.961 949.543C355.609 951.051 354.127 952.897 352.515 955.081C350.903 957.265 349.187 959.891 347.367 962.959C345.079 966.911 343.077 970.499 341.361 973.723C339.697 976.947 338.267 980.249 337.071 983.629C336.395 985.605 336.057 987.217 336.057 988.465C336.057 990.233 336.655 991.117 337.851 991.117C338.787 991.117 339.827 990.649 340.971 989.713C342.167 988.777 343.103 987.945 343.779 987.217C344.819 986.177 345.729 985.215 346.509 984.331C347.341 983.395 348.147 982.459 348.927 981.523C349.083 981.367 349.213 981.289 349.317 981.289C349.629 981.289 349.785 981.523 349.785 981.991C349.785 982.251 349.681 982.485 349.473 982.693C348.901 983.369 348.329 984.071 347.757 984.799C347.237 985.475 346.665 986.151 346.041 986.827C345.521 987.503 344.923 988.179 344.247 988.855C343.623 989.479 342.999 990.077 342.375 990.649C341.491 991.481 340.425 992.209 339.177 992.833C337.929 993.457 336.759 993.769 335.667 993.769ZM353.794 994.705C351.87 994.705 350.336 994.159 349.192 993.067C348.048 991.923 347.476 990.337 347.476 988.309C347.476 986.749 347.762 985.111 348.334 983.395C348.958 981.679 349.556 980.327 350.128 979.339C351.324 977.155 352.754 975.153 354.418 973.333C356.134 971.513 357.876 970.057 359.644 968.965C361.464 967.821 363.128 967.249 364.636 967.249C366.04 967.249 367.236 967.639 368.224 968.419C369.264 969.199 369.784 970.239 369.784 971.539C369.784 972.059 369.654 972.657 369.394 973.333C369.134 974.009 368.718 974.711 368.146 975.439C366.066 978.091 363.752 980.171 361.204 981.679C358.708 983.135 355.848 984.227 352.624 984.955C352.416 985.631 352.234 986.307 352.078 986.983C351.922 987.607 351.792 988.205 351.688 988.777C351.636 989.037 351.584 989.297 351.532 989.557C351.532 989.765 351.532 989.999 351.532 990.259C351.532 991.299 351.766 992.053 352.234 992.521C352.754 992.937 353.378 993.145 354.106 993.145C355.25 993.145 356.472 992.859 357.772 992.287C359.072 991.663 360.294 990.961 361.438 990.181C362.582 989.401 363.44 988.777 364.012 988.309C364.584 987.789 365.13 987.269 365.65 986.749C366.222 986.177 366.846 985.553 367.522 984.877C368.042 984.305 368.536 983.759 369.004 983.239C369.472 982.667 369.914 982.095 370.33 981.523C370.486 981.367 370.616 981.289 370.72 981.289C371.032 981.289 371.188 981.523 371.188 981.991C371.188 982.251 371.084 982.485 370.876 982.693C369.94 983.837 369.004 984.981 368.068 986.125C367.132 987.217 366.17 988.283 365.182 989.323C364.038 990.519 362.452 991.715 360.424 992.911C358.448 994.107 356.238 994.705 353.794 994.705ZM353.092 983.941C354.444 983.369 356.004 982.537 357.772 981.445C359.592 980.353 361.334 979.053 362.998 977.545C364.714 975.985 366.118 974.321 367.21 972.553C367.574 971.981 367.756 971.461 367.756 970.993C367.756 970.265 367.34 969.901 366.508 969.901C365.936 969.901 365.234 970.109 364.402 970.525C361.802 971.929 359.566 973.827 357.694 976.219C355.822 978.611 354.288 981.185 353.092 983.941ZM557.071 995.095C554.211 995.095 551.897 994.575 550.129 993.535C548.413 992.495 547.165 991.091 546.385 989.323C545.605 987.503 545.215 985.475 545.215 983.239C545.215 980.483 545.735 977.623 546.775 974.659C547.815 971.643 549.245 968.757 551.065 966.001C552.885 963.245 554.965 960.775 557.305 958.591C559.697 956.355 562.245 954.587 564.949 953.287C567.705 951.987 570.487 951.337 573.295 951.337C576.415 951.337 578.703 952.039 580.159 953.443C581.615 954.847 582.343 956.537 582.343 958.513C582.343 959.449 582.187 960.437 581.875 961.477C581.511 962.621 581.069 963.817 580.549 965.065C580.029 966.261 579.561 967.353 579.145 968.341C578.729 969.277 578.443 969.953 578.287 970.369C577.455 970.369 576.883 970.135 576.571 969.667C576.259 969.199 576.103 968.575 576.103 967.795C576.103 966.911 576.285 965.871 576.649 964.675C577.013 963.479 577.429 962.309 577.897 961.165C578.521 959.813 578.833 958.513 578.833 957.265C578.833 956.069 578.495 955.107 577.819 954.379C577.195 953.599 576.181 953.209 574.777 953.209C572.021 953.209 569.395 953.937 566.899 955.393C564.455 956.849 562.193 958.773 560.113 961.165C558.085 963.505 556.317 966.079 554.809 968.887C553.353 971.695 552.209 974.503 551.377 977.311C550.545 980.067 550.129 982.563 550.129 984.799C550.129 987.295 550.623 989.349 551.611 990.961C552.651 992.573 554.601 993.379 557.461 993.379C559.749 993.379 561.881 992.755 563.857 991.507C565.885 990.259 567.783 988.517 569.551 986.281C570.279 985.397 570.877 984.357 571.345 983.161C571.865 981.913 572.151 980.795 572.203 979.807C571.319 979.911 570.383 980.015 569.395 980.119C568.407 980.171 567.419 980.197 566.431 980.197C565.339 980.197 564.299 980.145 563.311 980.041C562.323 979.885 561.491 979.651 560.815 979.339C559.931 978.923 559.463 978.299 559.411 977.467C559.411 977.467 559.619 977.493 560.035 977.545C560.503 977.545 561.075 977.545 561.751 977.545C562.219 977.545 562.739 977.545 563.311 977.545C563.883 977.493 564.481 977.441 565.105 977.389C566.041 977.285 567.159 977.155 568.459 976.999C569.811 976.791 571.137 976.583 572.437 976.375C573.789 976.167 574.933 976.011 575.869 975.907C576.857 975.751 577.455 975.673 577.663 975.673C580.523 975.673 582.109 976.661 582.421 978.637C581.953 978.481 581.459 978.403 580.939 978.403C580.211 978.403 579.379 978.507 578.443 978.715C577.559 978.923 576.441 979.157 575.089 979.417C575.193 979.625 575.245 979.833 575.245 980.041C575.245 980.249 575.245 980.483 575.245 980.743C575.245 982.979 574.621 984.981 573.373 986.749C572.177 988.517 570.617 990.025 568.693 991.273C566.821 992.521 564.845 993.457 562.765 994.081C560.685 994.757 558.787 995.095 557.071 995.095ZM585.293 993.847C583.577 993.847 582.381 993.431 581.705 992.599C581.029 991.767 580.691 990.753 580.691 989.557C580.691 987.997 581.055 986.333 581.783 984.565C582.563 982.797 583.239 981.419 583.811 980.431C585.215 978.195 586.879 976.063 588.803 974.035C590.727 972.007 592.755 970.369 594.887 969.121C597.071 967.821 599.151 967.171 601.127 967.171C602.167 967.171 603.181 967.353 604.169 967.717C605.157 968.029 606.119 968.575 607.055 969.355C607.523 969.719 607.835 970.083 607.991 970.447C608.199 970.759 608.303 971.045 608.303 971.305C608.303 972.085 607.965 972.475 607.289 972.475C606.821 972.475 606.483 972.163 606.275 971.539C605.599 969.771 604.507 968.887 602.999 968.887C601.699 968.887 600.217 969.485 598.553 970.681C596.889 971.877 595.251 973.307 593.639 974.971C591.871 976.843 590.259 978.871 588.803 981.055C587.347 983.187 586.255 985.137 585.527 986.905C585.163 987.685 584.903 988.387 584.747 989.011C584.643 989.583 584.591 990.077 584.591 990.493C584.591 991.429 584.981 991.897 585.761 991.897C586.645 991.897 587.945 991.247 589.661 989.947C590.909 988.959 592.183 987.763 593.483 986.359C594.835 984.955 596.083 983.577 597.227 982.225C598.371 980.821 599.281 979.729 599.957 978.949C600.217 978.533 600.451 978.143 600.659 977.779C600.919 977.415 601.153 977.103 601.361 976.843C601.569 976.583 601.907 976.375 602.375 976.219C602.895 976.063 603.415 975.985 603.935 975.985C604.559 975.985 605.079 976.089 605.495 976.297C605.911 976.505 605.989 976.869 605.729 977.389C605.729 977.441 605.443 977.987 604.871 979.027C604.299 980.015 603.623 981.211 602.843 982.615C602.115 984.019 601.465 985.371 600.893 986.671C600.581 987.399 600.321 988.075 600.113 988.699C599.905 989.323 599.801 989.843 599.801 990.259C599.801 990.935 600.061 991.273 600.581 991.273C600.945 991.273 601.491 991.065 602.219 990.649C603.363 990.077 604.507 989.245 605.651 988.153C606.847 987.061 607.939 985.943 608.927 984.799C609.499 984.227 610.019 983.681 610.487 983.161C610.955 982.641 611.397 982.095 611.813 981.523C611.969 981.367 612.099 981.289 612.203 981.289C612.515 981.289 612.671 981.523 612.671 981.991C612.671 982.251 612.567 982.485 612.359 982.693C611.787 983.369 611.215 984.071 610.643 984.799C610.071 985.475 609.473 986.151 608.849 986.827C608.277 987.503 607.679 988.179 607.055 988.855C606.483 989.479 605.885 990.077 605.261 990.649C603.025 992.729 600.971 993.769 599.099 993.769C598.267 993.769 597.565 993.483 596.993 992.911C596.421 992.287 596.135 991.325 596.135 990.025C596.135 989.037 596.317 987.919 596.681 986.671C596.785 986.099 596.941 985.527 597.149 984.955C597.409 984.383 597.643 983.785 597.851 983.161C596.811 984.825 595.615 986.489 594.263 988.153C592.963 989.765 591.559 991.117 590.051 992.209C588.543 993.301 586.957 993.847 585.293 993.847ZM606.135 994.003C608.371 989.843 610.217 985.839 611.673 981.991C613.181 978.091 614.897 974.165 616.821 970.213C617.393 969.173 618.121 968.471 619.005 968.107C619.889 967.691 620.747 967.483 621.579 967.483C622.255 967.483 622.853 967.561 623.373 967.717C623.217 968.081 622.801 968.809 622.125 969.901C621.501 970.941 620.825 972.137 620.097 973.489C619.577 974.425 618.797 975.881 617.757 977.857C616.717 979.781 615.755 981.783 614.871 983.863C615.339 983.187 616.041 982.251 616.977 981.055C617.965 979.807 619.057 978.481 620.253 977.077C621.501 975.673 622.775 974.347 624.075 973.099C625.375 971.851 626.649 970.837 627.897 970.057C629.145 969.225 630.263 968.809 631.251 968.809C632.291 968.809 632.993 969.095 633.357 969.667C633.773 970.187 633.981 970.811 633.981 971.539C633.981 972.475 633.617 973.541 632.889 974.737C632.213 975.881 631.511 977.181 630.783 978.637C630.367 979.417 629.847 980.353 629.223 981.445C628.651 982.485 628.079 983.525 627.507 984.565C626.987 985.553 626.571 986.385 626.259 987.061C626.779 986.073 627.559 984.825 628.599 983.317C629.639 981.757 630.835 980.171 632.187 978.559C633.591 976.895 635.021 975.335 636.477 973.879C637.933 972.371 639.337 971.175 640.689 970.291C642.093 969.355 643.315 968.887 644.355 968.887C645.395 968.887 646.097 969.147 646.461 969.667C646.877 970.187 647.085 970.811 647.085 971.539C647.085 972.527 646.747 973.697 646.071 975.049C645.447 976.401 644.641 977.779 643.653 979.183C642.717 980.587 641.781 981.939 640.845 983.239C639.961 984.539 639.259 985.683 638.739 986.671C638.011 988.127 637.647 989.245 637.647 990.025C637.647 990.857 637.985 991.273 638.661 991.273C639.233 991.273 639.857 991.065 640.533 990.649C641.729 990.077 642.899 989.271 644.043 988.231C645.187 987.139 646.253 985.995 647.241 984.799C647.761 984.175 648.307 983.551 648.879 982.927C649.503 982.251 649.919 981.783 650.127 981.523C650.231 981.367 650.361 981.289 650.517 981.289C650.829 981.289 650.985 981.497 650.985 981.913C650.985 982.173 650.855 982.433 650.595 982.693C650.075 983.369 649.529 984.071 648.957 984.799C648.385 985.475 647.787 986.151 647.163 986.827C646.643 987.503 646.071 988.179 645.447 988.855C644.875 989.479 644.251 990.077 643.575 990.649C641.339 992.729 639.259 993.769 637.335 993.769C636.243 993.769 635.463 993.457 634.995 992.833C634.527 992.157 634.293 991.325 634.293 990.337C634.293 988.985 634.631 987.425 635.307 985.657C636.035 983.837 636.893 982.121 637.881 980.509C637.985 980.353 638.323 979.859 638.895 979.027C639.467 978.195 640.091 977.233 640.767 976.141C641.443 975.049 642.041 974.009 642.561 973.021C643.081 972.033 643.341 971.331 643.341 970.915C643.341 970.551 643.107 970.447 642.639 970.603C642.223 970.759 641.495 971.279 640.455 972.163C639.207 973.255 637.803 974.633 636.243 976.297C634.683 977.961 633.097 979.807 631.485 981.835C629.925 983.811 628.521 985.917 627.273 988.153C627.013 988.673 626.649 989.193 626.181 989.713C625.713 990.233 625.089 990.493 624.309 990.493H624.075C623.763 990.493 623.399 990.389 622.983 990.181C622.619 989.973 622.437 989.505 622.437 988.777C622.437 987.477 622.853 985.943 623.685 984.175C624.517 982.407 625.479 980.613 626.571 978.793C627.663 976.921 628.599 975.231 629.379 973.723C629.639 973.151 629.847 972.631 630.003 972.163C630.211 971.695 630.315 971.331 630.315 971.071C630.315 970.655 630.081 970.525 629.613 970.681C629.197 970.785 628.469 971.279 627.429 972.163C626.181 973.203 624.751 974.581 623.139 976.297C621.579 978.013 619.993 979.859 618.381 981.835C616.769 983.811 615.287 985.761 613.935 987.685C612.583 989.557 611.543 991.195 610.815 992.599C610.607 993.067 610.321 993.353 609.957 993.457C609.645 993.509 609.125 993.561 608.397 993.613C607.877 993.613 607.461 993.613 607.149 993.613C606.837 993.665 606.499 993.795 606.135 994.003ZM654.826 994.705C652.902 994.705 651.368 994.159 650.224 993.067C649.08 991.923 648.508 990.337 648.508 988.309C648.508 986.749 648.794 985.111 649.366 983.395C649.99 981.679 650.588 980.327 651.16 979.339C652.356 977.155 653.786 975.153 655.45 973.333C657.166 971.513 658.908 970.057 660.676 968.965C662.496 967.821 664.16 967.249 665.668 967.249C667.072 967.249 668.268 967.639 669.256 968.419C670.296 969.199 670.816 970.239 670.816 971.539C670.816 972.059 670.686 972.657 670.426 973.333C670.166 974.009 669.75 974.711 669.178 975.439C667.098 978.091 664.784 980.171 662.236 981.679C659.74 983.135 656.88 984.227 653.656 984.955C653.448 985.631 653.266 986.307 653.11 986.983C652.954 987.607 652.824 988.205 652.72 988.777C652.668 989.037 652.616 989.297 652.564 989.557C652.564 989.765 652.564 989.999 652.564 990.259C652.564 991.299 652.798 992.053 653.266 992.521C653.786 992.937 654.41 993.145 655.138 993.145C656.282 993.145 657.504 992.859 658.804 992.287C660.104 991.663 661.326 990.961 662.47 990.181C663.614 989.401 664.472 988.777 665.044 988.309C665.616 987.789 666.162 987.269 666.682 986.749C667.254 986.177 667.878 985.553 668.554 984.877C669.074 984.305 669.568 983.759 670.036 983.239C670.504 982.667 670.946 982.095 671.362 981.523C671.518 981.367 671.648 981.289 671.752 981.289C672.064 981.289 672.22 981.523 672.22 981.991C672.22 982.251 672.116 982.485 671.908 982.693C670.972 983.837 670.036 984.981 669.1 986.125C668.164 987.217 667.202 988.283 666.214 989.323C665.07 990.519 663.484 991.715 661.456 992.911C659.48 994.107 657.27 994.705 654.826 994.705ZM654.124 983.941C655.476 983.369 657.036 982.537 658.804 981.445C660.624 980.353 662.366 979.053 664.03 977.545C665.746 975.985 667.15 974.321 668.242 972.553C668.606 971.981 668.788 971.461 668.788 970.993C668.788 970.265 668.372 969.901 667.54 969.901C666.968 969.901 666.266 970.109 665.434 970.525C662.834 971.929 660.598 973.827 658.726 976.219C656.854 978.611 655.32 981.185 654.124 983.941ZM851.317 994.315C850.121 994.315 849.159 993.691 848.431 992.443C848.067 991.767 847.807 991.013 847.651 990.181C847.547 989.349 847.495 988.491 847.495 987.607C847.495 986.359 847.599 985.137 847.807 983.941C848.015 982.745 848.223 981.783 848.431 981.055C848.587 980.431 848.847 979.417 849.211 978.013C849.575 976.557 849.965 974.919 850.381 973.099C850.849 971.227 851.291 969.329 851.707 967.405C852.123 965.429 852.461 963.609 852.721 961.945C852.981 960.229 853.111 958.851 853.111 957.811C853.111 956.563 853.033 955.497 852.877 954.613C852.773 953.729 852.669 952.923 852.565 952.195C852.721 952.091 852.981 952.039 853.345 952.039C854.177 952.039 854.957 952.481 855.685 953.365C856.465 954.197 856.959 954.951 857.167 955.627C857.375 956.199 857.479 957.031 857.479 958.123C857.479 959.735 857.297 961.607 856.933 963.739C856.569 965.871 856.127 967.925 855.607 969.901C855.139 971.825 854.723 973.333 854.359 974.425C854.047 975.413 853.657 976.765 853.189 978.481C852.773 980.145 852.357 981.861 851.941 983.629C851.525 985.397 851.187 986.905 850.927 988.153C850.719 989.401 850.667 990.103 850.771 990.259C851.083 989.583 851.577 988.725 852.253 987.685C852.929 986.645 853.631 985.605 854.359 984.565C855.087 983.473 855.659 982.563 856.075 981.835C858.103 978.559 860.261 975.231 862.549 971.851C864.889 968.471 867.021 965.195 868.945 962.023C870.869 958.799 872.195 955.887 872.923 953.287C873.703 953.079 874.327 953.209 874.795 953.677C875.263 954.145 875.601 954.743 875.809 955.471C876.069 956.147 876.225 956.745 876.277 957.265C876.277 957.421 876.277 957.603 876.277 957.811C876.329 957.967 876.355 958.123 876.355 958.279C876.355 959.995 875.991 962.049 875.263 964.441C874.535 966.833 873.625 970.083 872.533 974.191C872.325 975.075 871.987 976.297 871.519 977.857C871.103 979.417 870.635 981.055 870.115 982.771C869.647 984.435 869.205 985.969 868.789 987.373C868.425 988.725 868.165 989.687 868.009 990.259C869.413 987.815 871.077 985.241 873.001 982.537C874.977 979.781 877.031 976.999 879.163 974.191C881.295 971.383 883.375 968.627 885.403 965.923C887.431 963.167 889.251 960.541 890.863 958.045C892.527 955.497 893.801 953.157 894.685 951.025C894.841 950.973 895.075 950.947 895.387 950.947C896.011 950.947 896.427 951.233 896.635 951.805C896.895 952.325 897.025 952.923 897.025 953.599C897.025 954.275 896.947 954.847 896.791 955.315C896.583 955.835 896.115 956.667 895.387 957.811C894.659 958.903 893.827 960.099 892.891 961.399C891.955 962.699 891.019 963.973 890.083 965.221C889.199 966.469 888.471 967.483 887.899 968.263C883.635 973.931 879.891 978.897 876.667 983.161C873.495 987.373 871.077 991.039 869.413 994.159C869.257 994.211 869.101 994.237 868.945 994.237C868.789 994.289 868.633 994.315 868.477 994.315C867.905 994.315 867.359 994.133 866.839 993.769C866.319 993.457 865.929 993.015 865.669 992.443C865.409 991.663 865.279 990.831 865.279 989.947C865.279 988.647 865.461 987.113 865.825 985.345C866.241 983.577 866.709 981.601 867.229 979.417C867.853 977.077 868.633 974.373 869.569 971.305C870.505 968.185 871.311 965.351 871.987 962.803C871.623 963.271 871.311 963.739 871.051 964.207C870.011 965.767 868.815 967.587 867.463 969.667C866.111 971.695 864.733 973.801 863.329 975.985C861.925 978.169 860.599 980.223 859.351 982.147C858.155 984.071 857.141 985.735 856.309 987.139C855.477 988.491 854.957 989.375 854.749 989.791C854.229 990.779 853.709 991.663 853.189 992.443C852.721 993.171 852.383 993.743 852.175 994.159C852.019 994.211 851.863 994.237 851.707 994.237C851.603 994.289 851.473 994.315 851.317 994.315ZM900.989 962.725C900.417 962.725 899.949 962.543 899.585 962.179C899.221 961.763 899.039 961.295 899.039 960.775C899.039 959.995 899.299 959.345 899.819 958.825C900.391 958.253 901.015 957.967 901.691 957.967C902.367 957.967 902.887 958.201 903.251 958.669C903.667 959.085 903.823 959.631 903.719 960.307C903.563 960.983 903.225 961.555 902.705 962.023C902.237 962.491 901.665 962.725 900.989 962.725ZM890.303 993.535C889.159 993.535 888.171 993.171 887.339 992.443C886.507 991.663 886.091 990.363 886.091 988.543C886.091 987.763 886.169 986.905 886.325 985.969C886.793 983.525 887.547 981.185 888.587 978.949C889.679 976.713 890.719 974.789 891.707 973.177C892.747 971.513 893.423 970.421 893.735 969.901C893.995 969.381 894.671 968.887 895.763 968.419C896.855 967.899 897.765 967.639 898.493 967.639C899.117 967.639 899.429 967.847 899.429 968.263C899.429 968.627 899.299 968.965 899.039 969.277C898.259 970.525 897.349 971.955 896.309 973.567C895.321 975.127 894.359 976.791 893.423 978.559C892.487 980.327 891.707 982.069 891.083 983.785C890.459 985.501 890.147 987.087 890.147 988.543C890.147 989.323 890.277 989.947 890.537 990.415C890.849 990.883 891.395 991.117 892.175 991.117C893.007 991.117 893.969 990.727 895.061 989.947C896.153 989.115 897.193 988.205 898.181 987.217C899.221 986.177 899.975 985.371 900.443 984.799C900.963 984.227 901.457 983.681 901.925 983.161C902.445 982.641 902.913 982.095 903.329 981.523C903.485 981.367 903.615 981.289 903.719 981.289C904.031 981.289 904.187 981.523 904.187 981.991C904.187 982.251 904.083 982.485 903.875 982.693C903.303 983.369 902.731 984.071 902.159 984.799C901.587 985.475 900.989 986.151 900.365 986.827C899.533 987.815 898.597 988.829 897.557 989.869C896.517 990.909 895.399 991.793 894.203 992.521C893.007 993.197 891.707 993.535 890.303 993.535ZM898.035 994.003C900.271 989.843 902.117 985.839 903.573 981.991C905.081 978.091 906.797 974.165 908.721 970.213C909.293 969.173 910.021 968.471 910.905 968.107C911.789 967.691 912.647 967.483 913.479 967.483C914.155 967.483 914.753 967.561 915.273 967.717C915.117 968.081 914.701 968.809 914.025 969.901C913.401 970.941 912.725 972.137 911.997 973.489C911.477 974.425 910.697 975.881 909.657 977.857C908.617 979.781 907.655 981.783 906.771 983.863C907.239 983.291 907.967 982.355 908.955 981.055C909.943 979.755 911.087 978.351 912.387 976.843C913.687 975.283 915.039 973.801 916.443 972.397C917.899 970.941 919.303 969.771 920.655 968.887C922.059 967.951 923.307 967.483 924.399 967.483C925.231 967.483 925.959 967.743 926.583 968.263C927.207 968.783 927.519 969.485 927.519 970.369C927.519 971.669 926.973 973.203 925.881 974.971C924.789 976.687 923.697 978.377 922.605 980.041C922.397 980.353 922.007 980.951 921.435 981.835C920.915 982.719 920.343 983.733 919.719 984.877C919.095 985.969 918.549 987.035 918.081 988.075C917.665 989.063 917.457 989.843 917.457 990.415C917.457 990.987 917.691 991.273 918.159 991.273C919.147 991.273 920.161 990.883 921.201 990.103C922.293 989.323 923.333 988.439 924.321 987.451C925.309 986.411 926.089 985.553 926.661 984.877C927.233 984.253 927.753 983.655 928.221 983.083C928.689 982.511 929.157 981.965 929.625 981.445C929.781 981.289 929.911 981.211 930.015 981.211C930.327 981.211 930.483 981.445 930.483 981.913C930.483 982.225 930.379 982.485 930.171 982.693C929.599 983.369 929.027 984.071 928.455 984.799C927.883 985.475 927.285 986.151 926.661 986.827C926.089 987.503 925.491 988.179 924.867 988.855C924.295 989.479 923.697 990.077 923.073 990.649C920.837 992.729 918.757 993.769 916.833 993.769C915.533 993.769 914.649 993.379 914.181 992.599C913.765 991.819 913.557 990.857 913.557 989.713C913.557 988.465 913.895 987.113 914.571 985.657C915.247 984.201 916.079 982.719 917.067 981.211C918.055 979.651 919.043 978.143 920.031 976.687C921.071 975.231 921.929 973.905 922.605 972.709C923.281 971.461 923.619 970.421 923.619 969.589C923.619 969.277 923.437 969.121 923.073 969.121C922.761 969.121 922.137 969.511 921.201 970.291C920.317 971.019 919.355 971.903 918.315 972.943C917.275 973.931 916.287 974.893 915.351 975.829C914.467 976.765 913.869 977.441 913.557 977.857C912.257 979.261 910.983 980.769 909.735 982.381C908.539 983.993 907.395 985.553 906.303 987.061C905.679 987.945 905.133 988.855 904.665 989.791C904.197 990.675 903.677 991.611 903.105 992.599C902.845 993.067 902.481 993.353 902.013 993.457C901.597 993.509 901.025 993.561 900.297 993.613C899.777 993.613 899.361 993.613 899.049 993.613C898.737 993.665 898.399 993.795 898.035 994.003Z" fill="#1DC5AD"/>
<circle cx="404.5" cy="979.5" r="7.5" fill="white"/>
<circle cx="703.5" cy="979.5" r="7.5" fill="white"/>
</g>
<rect x="0.5" y="0.5" width="1049" height="1049" stroke="black"/>
<defs>
<filter id="filter0_f_5548_3527" x="-193" y="-233" width="1436" height="1436" filterUnits="userSpaceOnUse" color-interpolation-filters="sRGB">
<feFlood flood-opacity="0" result="BackgroundImageFix"/>
<feBlend mode="normal" in="SourceGraphic" in2="BackgroundImageFix" result="shape"/>
<feGaussianBlur stdDeviation="206.5" result="effect1_foregroundBlur_5548_3527"/>
</filter>
<clipPath id="clip0_5548_3527">
<rect width="1050" height="1050" fill="white"/>
</clipPath>
<clipPath id="clip1_5548_3527">
<rect width="618.836" height="634.711" fill="white" transform="translate(214.932 71.2891)"/>
</clipPath>
</defs>
</svg>
